{"glyphs":{"0":{"ha":546,"x_min":-2,"x_max":468,"o":"m 78 224 q 176 31 78 31 q 341 180 273 31 q 408 473 408 329 q 328 640 408 640 q 345 667 331 656 q 379 678 359 678 q 467 502 467 678 q 426 272 467 398 q 266 28 366 92 q 176 -1 222 -1 q 14 128 53 -1 q -1 252 -1 180 q 29 422 -1 323 q 180 673 80 590 q 313 727 243 727 q 329 719 323 727 q 338 698 336 712 q 149 531 226 698 q 78 224 78 378 z "},"1":{"ha":439,"x_min":1,"x_max":404,"o":"m 387 727 q 404 709 404 727 q 292 387 344 641 q 239 13 239 133 q 223 -1 239 -1 q 190 88 190 -1 q 228 456 190 284 q 324 693 266 628 q 148 561 231 660 q 66 372 66 462 q 94 322 66 322 q 63 297 89 297 q 19 320 37 297 q 1 382 1 343 q 69 538 1 456 q 228 674 138 621 q 387 727 319 727 z "},"2":{"ha":546,"x_min":-46,"x_max":457,"o":"m -38 52 q -44 69 -44 52 q -37 86 -44 86 q 52 144 -14 86 q 191 283 119 203 q 318 456 262 363 q 374 606 374 548 q 281 691 374 691 q 128 604 188 691 q 92 516 92 552 q 114 479 92 479 l 114 473 q 93 436 114 448 q 73 431 84 431 q 30 481 30 431 q 94 624 30 549 q 301 727 182 726 q 417 689 378 727 q 457 592 457 652 q 411 453 457 531 q 298 304 366 376 q 31 82 153 157 q 118 73 61 80 q 290 57 242 57 q 360 63 338 57 q 393 78 382 69 q 426 117 418 97 q 441 88 444 117 q 394 17 437 43 q 285 -10 351 -10 q 107 21 219 -10 q -38 52 -4 52 z "},"3":{"ha":520,"x_min":-94,"x_max":431,"o":"m 251 391 q 401 193 401 349 q 324 9 401 97 q 77 -97 231 -97 q -84 -34 -44 -97 q -94 -7 -94 -20 q -84 19 -94 7 q -52 41 -73 32 q -43 -3 -52 19 q -4 -46 -34 -26 q 77 -67 27 -67 q 262 31 191 -67 q 316 186 316 104 q 217 350 316 309 q 130 366 179 366 q 140 391 130 380 q 164 402 150 402 q 284 476 216 402 q 353 621 353 549 q 333 672 353 652 q 271 691 312 691 q 149 629 193 691 q 127 572 127 599 q 152 546 127 546 q 138 514 152 529 q 106 499 124 499 q 59 547 59 499 q 114 651 59 594 q 298 727 190 727 q 427 649 406 727 q 431 616 431 633 q 381 494 431 561 q 251 391 331 427 z "},"4":{"ha":608,"x_min":-46,"x_max":549,"o":"m 513 346 q 549 302 549 346 q 511 221 549 258 q 377 168 462 173 q 361 -4 361 62 q 346 -20 361 -20 q 311 69 311 -20 q 313 167 311 133 q 72 183 262 168 q 18 167 44 167 q -44 197 -44 167 q -20 222 -44 212 q 12 227 -6 227 l 20 227 q 73 309 48 251 q 137 562 114 407 q 143 657 143 609 q 126 706 143 706 q 150 727 129 727 q 193 629 183 727 q 198 545 198 598 q 182 407 198 492 q 110 219 160 282 q 316 198 241 201 q 364 480 327 360 q 414 577 384 541 q 481 612 444 612 q 499 594 499 612 q 433 436 464 548 q 381 199 401 324 q 491 267 464 207 q 498 301 498 283 q 482 321 498 319 q 513 346 490 346 z "},"5":{"ha":500,"x_min":-94,"x_max":432,"o":"m 161 706 q 170 702 161 706 q 214 690 180 698 q 283 682 248 682 q 344 689 318 682 q 383 707 370 697 q 418 753 410 729 q 431 729 431 753 q 378 633 431 670 q 271 607 338 607 q 141 640 204 607 q 132 582 138 622 q 107 446 120 490 q 199 468 151 468 q 380 360 331 468 q 402 254 402 310 q 382 138 402 199 q 232 -54 339 9 q 77 -97 161 -97 q -84 -34 -44 -97 q -94 -7 -94 -20 q -84 19 -94 7 q -52 41 -73 32 q -43 -3 -52 19 q -4 -46 -34 -26 q 77 -67 27 -67 q 262 47 190 -67 q 320 243 320 139 q 240 417 320 374 q 181 432 211 432 q 129 422 150 432 q 97 400 109 412 q 49 367 66 367 q 25 373 33 367 q 13 394 17 380 q 63 444 43 394 q 89 553 82 494 q 139 713 109 713 q 161 706 141 713 z "},"6":{"ha":519,"x_min":-1,"x_max":442,"o":"m 90 223 q 113 339 90 278 q 189 451 137 401 q 310 501 242 501 q 432 404 404 501 q 441 319 441 371 q 409 190 441 268 q 264 20 359 67 q 176 -1 222 -1 q 17 123 57 -1 q -1 249 -1 177 q 29 421 -1 322 q 203 707 84 603 q 416 792 301 792 q 432 785 426 792 q 440 763 438 778 q 190 593 296 763 q 83 276 102 452 q 79 206 79 238 q 120 57 79 102 q 176 31 142 31 q 321 142 261 31 q 370 337 370 237 q 309 467 370 452 q 292 469 301 469 q 173 386 226 469 q 121 222 121 303 q 113 214 121 217 q 98 215 106 212 q 90 223 90 218 z "},"7":{"ha":423,"x_min":32,"x_max":443,"o":"m 426 727 q 443 709 443 727 q 306 540 389 661 q 152 266 222 419 q 82 16 82 113 q 67 1 82 1 q 32 57 32 1 q 44 142 32 90 q 173 466 81 303 q 340 689 264 629 q 219 661 310 684 q 94 638 129 638 q 52 654 60 638 q 48 689 43 671 l 52 706 q 108 688 72 688 q 261 707 144 688 q 426 727 378 727 z "},"8":{"ha":517,"x_min":-32,"x_max":454,"o":"m 454 749 q 403 589 454 660 q 257 436 351 518 q 295 391 267 423 q 337 341 323 359 q 369 294 351 323 q 404 180 404 239 q 334 25 404 81 q 176 -31 264 -31 q 27 11 87 -31 q -32 130 -32 53 q 57 310 -32 221 q 173 416 98 351 q 121 558 121 487 q 169 677 121 629 q 294 724 218 724 q 329 717 317 724 q 344 700 342 709 l 347 692 q 303 697 334 697 q 216 663 246 697 q 187 579 187 630 q 232 467 187 529 q 369 623 320 547 q 418 799 418 700 q 444 782 433 796 q 454 749 454 768 m 336 152 q 320 221 336 186 q 292 274 304 257 q 243 333 280 291 q 198 384 206 376 q 69 251 113 311 q 24 128 24 191 q 68 32 24 64 q 174 -1 111 -1 q 287 40 238 -1 q 336 152 336 81 z "},"9":{"ha":530,"x_min":-110,"x_max":448,"o":"m 68 402 q 153 256 68 256 q 267 336 220 256 q 314 493 314 416 q 314 502 314 498 q 322 509 314 507 q 347 494 347 516 q 326 382 347 442 q 254 272 306 322 q 136 222 203 222 q 11 320 40 222 q 0 410 0 358 q 27 534 0 462 q 166 703 73 658 q 253 724 208 724 q 427 593 381 724 q 447 457 447 533 q 421 287 447 381 q 254 -6 370 101 q 41 -97 157 -97 q -69 -67 -30 -97 q -110 -9 -109 -37 q -100 19 -110 7 q -70 41 -90 32 q -43 -32 -69 3 q 40 -67 -18 -67 q 256 93 159 -67 q 364 417 342 237 q 370 501 370 462 q 324 661 370 611 q 253 693 296 693 q 113 584 167 693 q 68 402 68 493 z "}," ":{"ha":297,"x_min":0,"x_max":0,"o":""},"!":{"ha":262,"x_min":67,"x_max":270,"o":"m 71 89 q 107 121 80 121 q 133 96 133 121 q 109 11 133 73 l 100 -9 q 71 23 81 -9 q 67 56 67 40 q 71 89 67 72 m 73 266 q 99 511 73 372 q 167 755 124 650 q 252 860 210 860 q 270 842 270 860 q 174 522 226 742 q 122 214 122 301 q 107 200 122 200 q 73 266 73 200 z "},"\"":{"ha":326,"x_min":134,"x_max":326,"o":"m 178 667 q 146 614 157 614 q 136 636 136 614 q 137 676 136 657 q 153 763 141 721 q 184 792 159 792 q 203 783 198 792 q 178 667 216 763 m 300 678 q 287 646 300 678 q 264 614 274 614 q 253 636 253 614 q 254 676 253 657 q 271 763 259 721 q 302 792 277 792 q 326 769 326 792 q 300 678 326 741 z "},"#":{"ha":861,"x_min":48,"x_max":722,"o":"m 436 264 q 269 260 316 260 q 234 -22 234 66 q 219 -37 234 -37 q 193 59 193 -37 q 206 259 193 156 q 86 257 92 257 q 48 281 52 257 q 61 300 47 298 q 86 292 67 292 l 210 292 q 240 451 219 360 q 104 449 176 449 q 68 471 72 449 q 81 491 69 488 q 104 484 86 484 l 249 484 q 312 659 278 592 q 373 726 347 726 q 391 708 391 726 q 317 486 352 624 q 479 487 426 486 q 542 659 508 593 q 603 726 577 726 q 621 708 621 726 q 546 487 581 626 q 713 488 624 488 q 722 476 723 488 q 699 461 718 462 q 539 458 653 461 q 504 294 527 408 q 693 296 592 296 q 702 283 703 296 q 679 269 698 270 q 499 266 627 269 q 463 -22 463 61 q 448 -37 463 -37 q 422 63 422 -37 q 436 264 422 162 m 274 292 q 439 294 328 294 q 471 456 452 378 q 309 452 396 456 q 274 292 301 428 z "},"$":{"ha":532,"x_min":-17,"x_max":413,"o":"m 32 53 q 121 -16 32 -16 q 200 -4 166 -16 q 264 369 219 108 q 233 396 256 377 q 200 424 210 414 q 176 451 190 434 q 150 522 150 482 q 203 647 150 588 q 327 722 257 706 q 335 775 330 747 q 342 812 340 803 q 352 821 343 821 q 360 819 356 821 q 378 790 378 811 q 369 727 378 769 q 402 712 391 726 q 413 684 413 698 l 412 671 q 383 679 401 679 q 360 678 364 679 q 306 391 326 490 q 358 343 339 362 q 395 287 377 323 q 413 211 413 250 q 364 65 413 132 q 227 -29 314 -2 q 208 -130 211 -103 q 200 -140 206 -140 q 194 -139 197 -140 q 182 -120 182 -133 q 184 -98 182 -107 q 193 -37 191 -58 q 121 -43 149 -43 q -10 30 12 -43 q -16 66 -16 48 q 18 158 -16 110 q 158 239 71 232 l 173 240 q 197 231 188 240 q 209 206 206 222 q 72 140 130 206 q 32 53 32 94 m 233 10 q 316 91 287 38 q 344 213 344 143 q 296 337 344 282 l 233 10 m 316 664 q 248 607 276 646 q 220 521 220 568 q 274 421 220 473 q 316 664 297 559 z "},"%":{"ha":801,"x_min":61,"x_max":707,"o":"m 178 -99 q 166 -81 166 -99 q 193 -8 166 -63 q 378 396 220 48 q 553 780 537 744 q 583 804 567 804 q 604 791 599 804 q 582 697 614 764 q 478 491 568 668 q 196 -81 263 66 q 178 -99 187 -99 m 267 706 q 159 613 201 706 q 117 423 117 521 q 167 326 117 326 q 257 405 220 326 q 294 569 294 484 q 248 653 294 653 q 258 672 248 662 q 283 681 269 681 q 336 588 336 681 q 293 407 336 494 q 163 300 240 300 q 67 392 86 300 q 61 446 61 418 q 94 591 61 513 q 211 721 140 697 q 243 728 229 728 q 263 722 258 728 q 267 706 268 717 m 637 380 q 529 288 571 380 q 487 98 487 196 q 536 0 487 0 q 627 80 590 0 q 664 244 664 160 q 617 328 664 328 q 628 347 617 338 q 653 356 639 356 q 706 262 706 356 q 657 72 706 169 q 531 -25 608 -24 q 437 67 454 -26 q 431 119 431 92 q 464 266 431 188 q 580 396 509 370 q 612 402 598 402 q 632 397 627 402 q 637 380 638 391 z "},"&":{"ha":801,"x_min":-32,"x_max":761,"o":"m 324 697 q 187 530 187 697 q 198 436 187 487 q 281 512 248 479 q 349 591 313 544 q 418 799 418 682 q 444 782 433 796 q 454 743 454 768 q 447 689 454 719 q 430 637 439 659 q 398 584 421 614 q 364 539 376 553 q 320 492 353 524 q 230 410 240 417 q 218 401 220 403 q 213 397 216 399 q 209 393 211 396 q 371 91 256 223 q 447 242 426 154 q 460 330 460 293 q 453 392 460 367 q 393 454 438 454 q 431 478 400 478 q 489 407 474 478 q 494 341 494 381 q 479 238 494 300 q 391 68 453 138 q 618 -50 506 -50 q 707 -8 686 -50 q 706 22 718 16 q 702 23 704 23 q 709 38 702 30 q 736 50 719 50 q 761 16 761 50 q 717 -50 761 -19 q 601 -81 671 -81 q 350 30 474 -81 q 178 -31 270 -31 q 27 11 87 -31 q -32 126 -32 53 q 9 254 -32 198 q 131 381 50 311 q 109 516 109 457 q 126 622 109 576 q 186 697 142 669 q 294 724 229 724 q 315 716 310 724 q 324 697 320 707 m 171 -1 q 328 50 259 -1 q 147 337 209 169 q 24 122 24 224 q 68 32 24 64 q 171 -1 111 -1 z "},"'":{"ha":294,"x_min":193,"x_max":294,"o":"m 193 687 q 223 724 212 687 q 234 799 234 761 q 264 837 234 837 q 294 797 294 837 q 252 693 294 736 q 218 673 231 674 q 193 683 196 673 l 193 687 z "},"(":{"ha":307,"x_min":19,"x_max":324,"o":"m 312 861 q 323 851 323 861 q 317 841 323 841 q 193 701 253 831 q 106 426 133 570 q 78 158 78 281 q 139 -70 78 -31 q 144 -79 143 -73 q 138 -88 147 -88 q 131 -86 136 -88 q 38 58 64 -49 q 20 188 20 127 q 79 551 20 356 q 181 764 117 677 q 312 861 244 852 z "},")":{"ha":330,"x_min":-4,"x_max":300,"o":"m 6 -92 q -4 -82 -4 -92 q 3 -72 -4 -72 q 126 69 67 -62 q 214 347 186 201 q 242 617 242 493 q 180 846 242 806 q 176 856 173 850 q 182 862 178 862 q 189 861 186 862 q 273 750 246 830 q 300 574 300 670 q 276 352 300 470 q 212 139 251 234 q 117 -21 172 44 q 6 -92 62 -86 z "},"*":{"ha":491,"x_min":132,"x_max":451,"o":"m 169 777 q 183 777 169 777 q 233 757 197 777 q 283 716 270 738 q 286 749 286 724 q 282 805 286 773 q 284 847 279 837 q 307 859 292 859 q 331 849 322 859 q 341 822 339 840 q 341 784 343 804 q 316 711 337 739 q 401 757 344 721 q 426 763 414 763 q 444 752 438 763 q 451 733 451 741 q 412 692 451 710 q 348 674 372 674 q 310 679 324 674 q 382 604 321 660 q 397 580 397 591 q 387 559 397 569 q 362 549 378 549 q 321 578 346 549 q 282 670 281 627 q 226 582 260 650 q 203 561 214 561 q 183 566 191 561 q 168 588 168 577 q 174 616 168 599 q 208 660 180 633 q 263 694 237 687 q 163 717 243 703 q 133 744 133 721 q 133 751 133 748 q 169 777 141 777 z "},"+":{"ha":696,"x_min":70,"x_max":568,"o":"m 544 334 q 323 329 481 334 q 284 53 284 132 q 273 42 284 42 q 259 108 259 42 q 278 328 259 223 q 102 326 129 326 q 70 348 74 326 q 83 368 71 364 q 107 361 88 361 l 283 361 q 334 532 304 464 q 387 600 364 600 q 400 588 400 600 q 336 386 363 512 q 329 361 333 377 l 559 361 q 568 352 568 361 q 544 334 568 334 z "},",":{"ha":227,"x_min":31,"x_max":132,"o":"m 31 -26 q 61 12 50 -26 q 72 87 72 49 q 102 124 72 124 q 132 84 132 124 q 90 -19 132 23 q 56 -39 70 -39 q 31 -29 33 -39 l 31 -26 z "},"-":{"ha":642,"x_min":70,"x_max":519,"o":"m 496 334 q 107 326 496 334 q 70 348 74 326 q 83 368 71 364 q 107 361 88 361 l 509 361 q 519 349 520 361 q 496 334 514 336 z "},".":{"ha":260,"x_min":63,"x_max":141,"o":"m 87 -8 q 63 36 63 -8 q 78 92 63 62 q 119 122 92 122 q 141 97 141 122 q 100 11 141 71 l 87 -8 z "},"/":{"ha":481,"x_min":-12,"x_max":428,"o":"m 0 -99 q -12 -81 -12 -99 q 15 -7 -12 -62 q 204 404 42 49 q 377 782 366 759 q 408 804 389 804 q 428 777 428 804 q 409 706 428 744 q 300 491 390 668 q 18 -81 86 66 q 0 -99 9 -99 z "},":":{"ha":278,"x_min":63,"x_max":168,"o":"m 87 -8 q 63 36 63 -8 q 78 92 63 62 q 119 122 92 122 q 141 97 141 122 q 100 11 141 71 l 87 -8 m 113 287 q 90 331 90 287 q 104 388 90 358 q 146 418 119 418 q 168 391 168 418 q 154 353 168 379 q 127 307 141 327 l 113 287 z "},";":{"ha":267,"x_min":31,"x_max":174,"o":"m 120 287 q 97 331 97 287 q 111 388 97 358 q 151 418 124 418 q 174 391 174 418 q 133 307 174 369 l 120 287 m 31 -26 q 61 12 50 -26 q 72 87 72 49 q 102 124 72 124 q 132 84 132 124 q 90 -19 132 23 q 56 -39 70 -39 q 31 -29 33 -39 l 31 -26 z "},"<":{"ha":592,"x_min":10,"x_max":424,"o":"m 424 483 q 334 366 424 436 q 156 288 243 297 q 293 181 230 254 q 356 56 356 107 q 348 26 356 39 q 323 4 340 13 q 226 176 323 86 q 10 266 128 266 q 34 293 13 280 q 79 307 54 307 q 294 387 196 307 q 392 536 392 467 q 401 532 396 534 q 416 517 407 530 q 424 483 424 503 z "},"=":{"ha":727,"x_min":70,"x_max":568,"o":"m 544 418 q 107 409 544 418 q 70 431 74 409 q 83 451 71 448 q 107 444 88 444 l 559 444 q 568 436 568 444 q 544 418 568 418 m 544 251 l 107 242 q 70 264 74 242 q 83 284 71 281 q 107 278 88 278 l 559 278 q 568 269 568 278 q 544 251 568 251 z "},">":{"ha":514,"x_min":30,"x_max":444,"o":"m 30 58 q 120 175 30 106 q 299 253 210 244 q 162 361 224 287 q 99 486 99 434 q 107 514 99 502 q 130 536 114 527 q 228 365 130 454 q 444 276 326 276 q 420 248 441 262 q 374 234 399 234 q 222 194 297 234 q 104 101 147 154 q 61 4 61 48 q 40 23 50 8 q 30 58 30 38 z "},"?":{"ha":547,"x_min":116,"x_max":544,"o":"m 214 740 q 180 652 180 689 q 202 614 180 614 q 191 582 202 597 q 160 567 179 567 q 117 617 117 567 q 181 760 117 684 q 389 862 269 861 q 504 824 464 862 q 544 727 544 787 q 507 604 544 667 q 417 489 470 541 q 311 389 364 437 q 184 211 184 272 q 166 198 184 199 q 147 211 147 198 q 258 402 147 273 q 351 510 304 454 q 429 627 397 566 q 462 741 462 689 q 368 827 462 827 q 214 740 274 827 m 122 89 q 158 121 131 121 q 184 96 184 121 q 160 11 184 73 l 151 -9 q 122 23 132 -9 q 118 56 118 40 q 122 89 118 72 z "},"@":{"ha":930,"x_min":88,"x_max":830,"o":"m 581 270 q 633 172 581 172 q 742 258 696 172 q 788 440 788 344 q 662 674 788 616 q 544 699 612 699 q 250 551 363 699 q 151 253 151 422 q 229 32 151 113 q 398 -34 293 -34 q 482 -23 444 -34 q 540 4 520 -11 q 592 67 582 39 l 597 78 l 617 77 q 596 31 613 59 q 555 -15 578 3 q 488 -48 532 -33 q 388 -63 443 -63 q 131 71 208 -63 q 89 238 89 146 q 102 348 89 290 q 264 618 140 511 q 565 726 389 726 q 803 587 741 726 q 829 465 829 527 q 811 341 829 403 q 703 172 778 222 q 631 148 668 148 q 547 198 571 148 q 529 291 529 237 q 530 322 529 306 l 521 322 q 367 149 421 149 q 300 254 300 149 q 344 420 300 332 q 481 548 400 530 l 507 551 q 542 540 528 551 q 561 518 557 529 l 566 507 q 551 490 569 490 q 531 501 536 490 q 501 523 522 523 q 411 436 452 523 q 362 240 362 333 q 376 184 362 193 q 458 276 397 184 q 482 316 472 299 q 509 359 492 332 q 536 402 526 387 q 557 438 546 418 q 576 469 569 458 q 590 491 582 480 q 622 513 604 513 q 638 493 638 513 q 598 388 616 453 q 581 270 581 323 z "},"A":{"ha":1174,"x_min":-1,"x_max":1211,"o":"m 410 -16 q 356 141 356 37 q 432 382 356 258 q 547 496 474 451 q 704 540 619 540 q 786 527 742 540 q 923 728 870 666 q 1016 822 977 790 q 1193 893 1103 893 q 1211 876 1211 893 q 1098 551 1138 714 q 1037 232 1059 387 q 1016 -31 1016 77 q 1000 -47 1016 -47 q 961 42 961 -47 q 940 246 961 154 q 804 474 901 419 q 758 386 792 451 q 708 289 724 320 q 661 204 692 259 q 607 116 629 149 q 491 -24 553 36 q 518 -28 502 -28 q 672 34 611 -28 q 757 180 733 96 q 774 191 760 192 q 781 182 783 190 q 688 15 757 87 q 517 -57 620 -57 q 464 -49 493 -57 q 247 -131 362 -131 q 33 -13 97 -131 q -1 123 -1 50 q 9 204 -1 162 q 118 368 36 319 q 208 392 159 392 q 233 383 223 392 q 248 353 243 373 q 130 307 182 353 q 42 89 42 230 q 94 -45 42 3 q 233 -93 146 -93 q 410 -16 320 -93 m 703 500 q 536 439 610 500 q 427 296 461 378 q 392 131 392 214 q 434 4 392 48 q 524 109 477 44 q 600 219 572 174 q 687 363 628 263 q 763 492 746 463 q 703 500 737 500 m 1136 850 q 973 740 1047 827 q 823 510 900 653 q 974 274 931 451 q 1039 622 994 463 q 1136 850 1084 780 z "},"B":{"ha":847,"x_min":-2,"x_max":788,"o":"m 624 512 q 757 296 757 470 q 633 11 757 150 q 292 -129 509 -129 q 71 -30 122 -129 q 53 38 53 3 q 71 110 53 73 q 168 181 104 181 q 176 175 173 181 q 175 162 178 169 q 167 156 172 156 q 103 107 129 156 q 86 46 86 74 q 99 -10 86 17 q 272 -86 138 -86 q 566 57 441 -86 q 684 296 662 166 q 690 353 690 327 q 644 468 690 430 q 584 491 620 488 q 456 466 524 466 q 448 481 448 466 q 456 496 448 496 q 652 601 568 496 q 719 756 714 680 q 667 826 717 822 q 550 748 612 826 q 438 559 488 670 q 346 332 388 448 q 281 133 304 216 q 258 36 258 50 q 242 21 258 21 q 209 110 209 21 q 257 527 209 324 q 364 797 306 729 q 107 684 206 774 q 50 576 50 634 q 72 547 50 547 q 48 531 68 531 q 13 547 28 531 q -2 590 -2 562 q 77 712 -2 656 q 249 795 157 768 q 406 822 341 822 q 423 804 423 822 q 292 314 351 637 l 301 314 q 453 674 366 516 q 557 809 500 760 q 672 859 613 859 q 783 783 766 859 q 787 750 787 768 q 741 622 787 690 q 624 512 694 553 z "},"C":{"ha":672,"x_min":67,"x_max":724,"o":"m 643 571 q 634 566 643 567 q 615 569 624 564 q 606 581 606 573 q 631 764 606 694 q 698 833 657 833 q 717 826 709 833 q 724 804 724 818 q 652 656 673 753 q 643 571 643 616 m 577 807 q 302 628 423 807 q 166 268 198 473 q 154 143 154 200 q 194 -32 154 34 q 307 -98 234 -98 q 473 14 404 -98 q 520 148 520 90 q 507 173 520 173 q 540 199 513 199 q 571 154 571 199 q 498 -23 571 71 q 292 -136 410 -136 q 92 12 144 -136 q 67 168 67 81 q 96 363 67 256 q 283 718 151 577 q 574 860 414 859 q 607 846 597 860 q 616 818 617 831 l 616 803 q 577 807 607 807 z "},"D":{"ha":833,"x_min":8,"x_max":756,"o":"m 49 531 q 8 589 8 531 q 68 718 8 647 q 346 857 168 838 l 407 860 q 700 699 609 860 q 754 471 754 600 q 746 359 754 418 q 592 23 713 161 q 282 -129 459 -129 q 57 -30 104 -129 q 42 36 42 1 q 61 110 42 71 q 161 181 98 181 q 168 175 167 181 q 167 162 170 169 q 159 156 164 156 q 93 107 121 156 q 76 43 76 72 q 87 -10 76 14 q 257 -86 122 -86 q 532 70 409 -86 q 676 399 643 210 q 687 514 687 460 q 632 719 687 636 q 406 831 560 831 q 116 701 212 831 q 67 577 67 634 q 77 553 67 553 q 49 531 70 531 m 209 110 q 239 438 209 279 q 313 691 269 598 q 398 783 357 783 q 416 766 416 783 q 328 490 366 662 q 258 36 258 176 q 242 21 258 21 q 209 110 209 21 z "},"E":{"ha":702,"x_min":-4,"x_max":729,"o":"m 530 336 q 601 263 584 336 q 608 208 608 237 q 573 59 608 140 q 392 -138 513 -81 q 249 -169 326 -169 q 24 -49 84 -169 q -3 70 -3 7 q 20 202 -3 133 q 202 449 71 353 q 381 529 283 507 q 292 640 292 561 q 371 789 292 719 q 570 860 450 860 q 600 844 590 860 q 609 813 610 829 l 609 799 q 571 803 600 803 q 401 732 470 803 q 352 633 352 682 q 491 541 352 541 q 512 534 503 541 q 526 512 520 527 q 203 364 333 512 q 81 58 81 227 q 137 -90 81 -38 q 250 -132 180 -132 q 492 1 408 -132 q 548 183 548 88 q 496 307 548 288 q 477 310 487 310 q 530 336 491 336 m 648 609 q 638 603 648 603 q 618 608 628 603 q 609 620 609 612 q 634 803 609 733 q 702 872 660 872 q 721 864 713 872 q 729 843 729 856 q 657 694 678 792 q 648 609 648 653 z "},"F":{"ha":756,"x_min":-3,"x_max":808,"o":"m 194 569 q 241 481 194 487 q 216 466 238 466 q 151 521 170 466 q 142 584 142 547 q 171 673 142 621 q 409 829 237 794 q 535 840 468 840 q 650 853 602 840 q 716 883 698 867 q 784 927 762 927 q 807 913 807 927 q 807 907 807 910 q 740 848 799 876 q 660 823 704 832 q 599 738 623 808 q 548 538 574 669 q 643 543 606 543 q 652 531 653 543 q 629 517 648 518 q 541 506 610 517 q 450 141 489 248 q 171 -129 352 -129 q 9 -10 41 -129 q -3 72 -3 31 q 38 228 -3 150 q 201 347 100 347 q 225 340 216 347 q 238 320 234 333 q 80 221 142 320 q 31 62 31 144 q 116 -84 31 -58 q 168 -90 136 -90 q 236 -72 200 -90 q 302 -5 272 -53 q 350 76 331 43 q 393 193 369 109 q 442 385 422 297 q 467 491 462 473 q 373 481 404 481 q 337 509 341 481 q 349 534 336 531 q 384 528 354 528 q 477 533 413 528 q 530 711 504 642 q 590 814 556 779 q 534 813 572 813 q 236 688 321 813 q 194 569 194 629 m 683 341 q 673 336 683 336 q 654 340 663 336 q 644 352 644 344 q 670 535 644 466 q 738 604 696 604 q 757 597 749 604 q 764 576 764 589 q 692 427 714 526 q 683 341 683 386 z "},"G":{"ha":839,"x_min":-24,"x_max":783,"o":"m 260 493 q 162 544 199 508 q 122 643 122 587 q 183 784 122 736 q 263 812 219 812 q 279 806 273 812 q 286 788 284 800 q 207 752 240 788 q 164 650 164 707 q 188 576 164 616 q 271 522 211 537 q 417 763 329 667 q 600 860 506 860 q 694 793 681 860 q 698 767 698 780 q 647 640 698 709 q 432 499 569 533 q 347 487 391 489 q 298 202 298 336 q 359 69 298 69 q 456 128 401 69 q 558 273 510 187 q 688 542 651 444 q 721 603 704 583 q 760 623 737 623 q 783 598 783 623 q 706 281 743 503 q 647 11 667 72 q 606 -102 627 -50 q 561 -187 584 -153 q 505 -257 538 -221 q 436 -314 472 -293 q 247 -362 351 -362 q 8 -247 73 -362 q -23 -147 -23 -194 q -12 -62 -23 -100 q 82 54 14 24 q 128 64 108 64 q 169 42 163 64 l 170 36 q 62 -40 101 36 q 37 -130 37 -89 q 173 -328 37 -291 q 246 -337 207 -337 q 383 -297 322 -337 q 479 -210 443 -257 q 547 -66 514 -163 q 591 84 579 32 q 614 198 602 137 q 627 263 626 259 q 629 274 628 268 q 632 292 630 280 q 640 329 633 303 l 629 329 q 488 117 562 202 q 349 31 413 31 q 250 72 284 31 q 207 237 207 124 q 260 493 207 349 m 600 828 q 466 739 530 828 q 357 517 402 651 q 591 631 499 527 q 656 770 656 703 q 600 828 649 824 z "},"H":{"ha":1002,"x_min":1,"x_max":1039,"o":"m 428 761 q 461 775 428 761 q 562 806 494 789 q 658 823 630 823 q 696 810 694 823 l 697 806 q 657 787 673 806 q 624 714 640 769 q 593 571 607 647 q 578 487 580 494 q 575 467 577 479 q 571 446 573 456 q 831 466 767 462 q 920 772 867 650 q 1021 893 973 893 q 1039 876 1039 893 q 926 551 966 714 q 865 232 887 387 q 843 -31 843 77 q 828 -47 843 -47 q 789 42 789 -47 q 824 438 789 230 q 656 417 717 426 q 564 406 596 409 q 458 42 517 143 q 394 -47 430 -6 q 204 -129 322 -129 q 65 -80 118 -129 q 4 39 12 -31 q 2 97 2 62 q 15 191 2 132 q 76 298 28 249 q 187 347 124 347 q 213 337 203 347 q 227 307 223 327 q 69 208 126 307 q 31 79 31 143 q 42 9 31 44 q 188 -90 73 -90 q 364 27 299 -90 q 428 176 406 101 q 482 396 459 282 q 419 391 447 391 q 387 419 391 391 q 396 444 382 440 q 399 446 397 446 q 425 438 403 438 q 492 441 447 438 q 526 594 513 542 q 562 707 538 646 q 614 796 587 769 q 423 724 512 777 q 349 659 378 698 q 320 578 320 620 q 342 549 320 549 q 318 533 338 533 q 283 549 298 533 q 268 592 268 564 q 314 687 268 641 q 428 761 361 732 z "},"I":{"ha":652,"x_min":7,"x_max":677,"o":"m 654 847 q 676 833 672 847 l 677 829 q 622 788 644 829 q 588 679 599 747 q 563 526 577 612 q 538 350 550 440 q 501 174 527 260 q 442 21 476 88 q 348 -88 408 -47 q 206 -129 288 -129 q 71 -80 123 -129 q 10 39 18 -31 q 8 97 8 62 q 21 191 8 132 q 82 298 33 249 q 192 347 130 347 q 218 337 209 347 q 231 307 228 327 q 73 208 131 307 q 37 79 37 143 q 48 9 37 44 q 193 -90 79 -90 q 303 -49 256 -90 q 379 59 350 -9 q 429 212 408 128 q 466 387 450 296 q 496 559 481 478 q 586 812 532 752 q 428 717 499 782 q 358 576 358 652 q 381 541 358 541 q 358 526 379 526 q 322 542 338 526 q 306 590 306 559 q 371 717 306 656 q 516 813 436 779 q 654 847 597 847 z "},"J":{"ha":813,"x_min":3,"x_max":839,"o":"m 251 -228 q 397 -178 334 -228 q 496 -48 459 -129 q 559 133 532 33 q 604 341 586 233 q 640 542 622 448 q 748 821 680 761 q 509 668 591 797 q 458 513 458 589 q 514 413 458 421 q 523 412 519 412 q 517 398 523 404 q 483 386 504 386 q 400 456 418 386 q 393 504 393 479 q 430 636 393 566 q 638 817 497 763 q 812 847 718 847 q 831 841 824 847 q 839 824 838 836 q 747 689 778 824 q 721 545 733 626 q 694 375 709 464 q 661 196 680 286 q 608 26 642 107 q 529 -117 574 -54 q 413 -217 484 -180 q 267 -253 342 -253 q 143 -234 191 -253 q 67 -183 96 -216 q 3 -17 3 -111 q 43 157 3 87 q 256 300 124 300 q 293 288 279 300 q 309 264 307 276 l 311 252 q 283 254 291 254 q 98 133 163 254 q 57 -16 57 59 q 71 -107 57 -61 q 251 -228 112 -228 z "},"K":{"ha":733,"x_min":0,"x_max":856,"o":"m 803 -197 q 848 -176 833 -197 q 854 -181 854 -176 q 849 -198 854 -187 q 789 -234 824 -231 q 676 -175 733 -234 q 574 -31 619 -116 q 490 138 529 53 q 420 283 451 223 q 371 342 389 342 q 382 376 363 350 q 802 859 683 859 q 827 845 818 859 q 838 804 836 831 q 722 740 790 804 q 659 675 687 704 q 587 587 632 646 q 442 396 529 512 q 609 79 487 366 q 708 -111 653 -26 q 803 -197 762 -197 m 408 822 q 426 804 426 822 q 282 246 339 604 q 260 36 260 100 q 244 21 260 21 q 211 110 211 21 q 259 527 211 324 q 367 797 308 729 q 109 684 208 774 q 52 576 52 634 q 74 547 52 547 q 50 531 70 531 q 15 547 30 531 q 0 590 0 562 q 79 712 0 656 q 251 795 159 768 q 408 822 343 822 z "},"L":{"ha":649,"x_min":-67,"x_max":797,"o":"m 597 809 q 514 742 547 809 q 461 567 481 674 q 418 346 440 460 q 353 118 397 231 q 248 -56 310 6 q 363 -103 287 -71 q 486 -152 440 -134 q 673 -201 611 -201 q 767 -162 734 -201 q 779 -140 774 -152 q 797 -167 797 -140 q 755 -239 797 -212 q 661 -267 713 -267 q 543 -246 609 -267 q 438 -208 478 -226 q 312 -145 398 -190 q 204 -90 226 -100 q 56 -130 143 -130 q -58 -81 -31 -130 q -66 -52 -66 -68 q -44 -16 -66 -36 q 30 3 -23 3 q 198 -38 83 3 q 340 371 287 62 q 384 604 360 491 q 455 788 409 717 q 572 860 501 860 q 619 844 603 860 q 636 813 636 829 l 637 798 q 597 809 626 809 m 663 571 q 654 566 663 567 q 634 569 644 564 q 624 581 624 573 q 650 764 624 694 q 718 833 676 833 q 737 826 729 833 q 744 804 744 818 q 672 656 693 753 q 663 571 663 616 m -34 -58 q -6 -89 -34 -78 q 69 -101 22 -101 q 162 -69 116 -101 q 9 -24 64 -24 q -33 -49 -26 -24 q -34 -58 -34 -53 z "},"M":{"ha":1076,"x_min":-1,"x_max":1061,"o":"m 878 26 q 947 -126 878 -126 q 1021 -60 991 -126 q 1041 -53 1028 -49 q 1044 -63 1047 -56 q 1036 -81 1041 -70 q 1016 -113 1030 -91 q 939 -162 982 -162 q 804 51 804 -162 q 974 801 804 291 q 969 814 979 814 q 949 804 960 814 q 828 656 890 749 q 720 467 767 562 q 599 191 638 301 q 507 37 547 37 q 483 60 483 37 q 484 62 483 61 q 623 694 623 566 q 598 752 623 752 q 437 562 547 752 q 271 180 327 371 q 153 -50 204 -50 q 130 -26 130 -50 q 137 -7 131 -22 q 151 39 142 9 q 179 136 160 70 q 212 264 199 202 q 257 562 257 471 q 250 659 257 611 q 217 738 243 708 q 147 768 190 768 q 51 711 79 768 q 42 677 42 691 q 50 663 42 663 q 23 648 47 648 q 0 678 0 648 q 46 759 0 723 q 151 794 92 794 q 245 765 210 794 q 296 687 280 736 q 321 511 321 606 q 317 438 321 476 l 328 438 q 624 796 504 796 q 693 678 693 796 q 668 479 693 621 l 678 479 q 1011 862 881 862 q 1061 807 1061 862 q 984 573 1027 721 q 878 26 878 208 z "},"N":{"ha":770,"x_min":0,"x_max":770,"o":"m 587 29 q 656 -126 587 -126 q 731 -60 698 -126 q 750 -53 737 -49 q 753 -63 757 -56 q 744 -81 750 -70 q 725 -113 739 -91 q 691 -148 711 -134 q 648 -162 670 -162 q 513 50 513 -162 q 657 731 513 269 l 674 788 q 669 797 677 797 q 656 791 662 797 q 523 631 593 737 q 393 407 452 524 q 236 71 284 191 q 154 -50 187 -50 q 131 -26 131 -50 l 131 -23 q 182 142 144 7 q 258 564 249 379 q 259 589 259 578 q 233 714 259 661 q 143 768 208 768 q 51 709 79 768 q 42 677 42 690 q 50 663 42 663 q 24 648 48 648 q 1 678 1 648 q 47 759 1 723 q 161 794 93 794 q 322 501 322 794 q 311 372 322 438 l 321 372 q 720 862 579 862 q 770 807 770 862 q 693 573 736 721 q 587 29 587 209 z "},"O":{"ha":760,"x_min":76,"x_max":686,"o":"m 627 520 q 534 723 627 723 q 542 738 534 731 q 578 750 557 750 q 676 634 652 750 q 686 536 686 588 q 651 316 686 437 q 477 6 593 108 q 304 -64 397 -64 q 101 88 154 -64 q 76 246 76 159 q 100 433 76 332 q 263 756 150 634 q 473 860 361 860 q 521 846 504 860 q 538 818 538 832 l 539 804 q 498 809 528 809 q 285 656 378 809 q 171 310 192 502 q 166 220 166 261 q 216 26 166 93 q 320 -27 256 -27 q 541 157 454 -27 q 627 520 627 341 z "},"P":{"ha":723,"x_min":-2,"x_max":793,"o":"m 720 758 q 667 826 720 826 q 517 706 596 826 q 384 437 439 587 q 294 169 330 288 q 258 36 258 50 q 242 21 258 21 q 209 110 209 21 q 257 527 209 324 q 364 797 306 729 q 107 684 206 774 q 50 576 50 634 q 72 547 50 547 q 48 531 68 531 q 13 547 28 531 q -2 590 -2 562 q 77 712 -2 656 q 249 795 157 768 q 406 822 341 822 q 423 804 423 822 q 292 313 353 642 l 301 313 q 453 674 367 518 q 557 809 500 760 q 672 859 613 859 q 792 730 792 859 q 738 557 792 652 q 564 383 669 434 q 453 356 509 356 q 433 363 440 356 q 423 386 426 371 q 621 510 528 386 q 716 717 698 611 q 720 758 720 739 z "},"Q":{"ha":758,"x_min":-18,"x_max":840,"o":"m 714 -201 q 823 -140 796 -201 q 840 -163 840 -140 q 790 -242 840 -210 q 706 -267 752 -267 q 620 -259 659 -267 q 526 -227 581 -251 q 448 -192 470 -202 q 353 -143 427 -182 q 274 -101 280 -103 q 105 -130 197 -130 q -11 -81 13 -130 q -18 -53 -18 -69 q 5 -17 -18 -37 q 71 3 28 3 q 301 -58 152 3 q 551 206 463 20 q 638 541 638 392 q 550 723 638 723 q 558 738 550 731 q 593 750 572 750 q 697 561 697 750 q 603 212 697 408 q 339 -73 509 17 q 538 -156 490 -138 q 714 -201 656 -201 m 373 123 q 394 144 373 123 q 437 216 416 166 q 458 299 458 266 q 482 344 458 333 q 512 338 507 354 l 513 330 q 483 219 513 284 q 392 98 452 153 q 267 43 332 43 q 102 177 139 43 q 88 301 88 226 q 124 489 88 376 q 301 779 186 674 q 492 860 393 860 q 539 846 523 860 q 556 818 556 832 l 556 804 q 516 809 546 809 q 294 651 394 809 q 182 338 206 511 q 177 253 177 292 q 219 108 177 153 q 288 81 244 81 q 373 123 331 81 m 59 -24 q 16 -49 24 -24 q 13 -59 13 -54 q 41 -89 13 -78 q 121 -101 68 -101 q 237 -82 174 -101 q 59 -24 119 -24 z "},"R":{"ha":813,"x_min":-2,"x_max":853,"o":"m 721 758 q 667 826 721 826 q 545 746 609 826 q 432 554 481 667 q 343 324 383 441 q 280 126 302 207 q 258 36 258 46 q 242 21 258 21 q 209 110 209 21 q 257 527 209 324 q 364 797 306 729 q 107 684 206 774 q 50 576 50 634 q 72 547 50 547 q 48 531 68 531 q 13 547 28 531 q -2 590 -2 562 q 77 712 -2 656 q 249 795 157 768 q 406 822 341 822 q 423 804 423 822 q 291 302 346 624 l 299 302 q 400 571 348 463 q 491 733 452 678 q 577 823 530 788 q 672 859 624 859 q 789 774 770 859 q 793 734 793 756 q 747 587 793 667 q 568 427 680 472 l 526 413 q 594 326 558 410 q 658 143 630 242 q 724 -39 686 43 q 801 -121 763 -121 q 846 -100 831 -121 q 853 -106 853 -100 q 847 -121 853 -111 q 787 -158 822 -154 q 675 -79 729 -158 q 588 96 621 0 q 517 288 554 192 q 454 406 480 383 q 435 413 442 406 q 427 436 428 420 q 638 553 544 436 q 721 758 721 659 z "},"S":{"ha":670,"x_min":4,"x_max":651,"o":"m 54 -46 q 141 -144 54 -128 q 179 -148 158 -148 q 399 -58 318 -148 q 480 167 480 31 q 461 265 480 220 q 412 339 441 310 q 349 399 383 369 q 287 453 316 429 q 238 512 258 478 q 219 586 219 547 q 311 774 219 688 q 508 860 402 860 q 539 844 529 860 q 549 813 549 829 l 548 799 q 509 803 540 803 q 371 737 438 803 q 304 582 304 670 q 324 513 304 547 q 372 453 343 479 q 434 396 401 428 q 497 334 468 364 q 545 259 526 303 q 564 167 564 216 q 453 -72 564 32 q 179 -177 342 -177 q 4 -88 41 -177 q 27 74 -24 -14 q 174 194 78 163 q 238 206 210 206 q 276 196 266 206 q 290 167 287 187 q 111 82 186 167 q 54 -46 54 19 m 570 569 q 559 563 570 563 q 540 568 549 563 q 531 580 531 572 q 557 762 531 693 q 624 831 582 831 q 643 823 636 831 q 651 803 651 816 q 579 653 601 753 q 570 569 570 613 z "},"T":{"ha":657,"x_min":1,"x_max":891,"o":"m 186 568 q 232 481 186 489 q 207 466 229 466 q 142 520 161 466 q 133 582 133 546 q 162 671 133 619 q 407 828 229 792 q 546 840 470 840 q 683 858 621 840 q 774 898 744 876 q 829 938 803 920 q 873 956 856 956 q 890 940 890 956 q 818 866 890 903 q 630 817 746 828 q 556 636 582 791 q 506 343 526 457 q 458 149 486 230 q 397 7 431 69 q 306 -92 362 -54 q 175 -129 250 -129 q 53 -80 100 -129 q 2 64 2 -27 q 83 298 2 217 q 192 347 132 347 q 216 340 207 347 q 229 320 226 333 q 76 222 134 320 q 32 72 32 150 q 120 -83 32 -56 q 163 -90 140 -90 q 284 -33 232 -90 q 363 110 336 23 q 415 305 390 197 q 457 511 440 413 q 502 694 473 609 q 567 813 530 779 l 544 813 q 227 686 317 813 q 186 568 186 628 z "},"U":{"ha":852,"x_min":39,"x_max":826,"o":"m 679 40 q 738 -126 679 -126 q 801 -60 769 -126 q 816 -52 807 -49 q 824 -58 824 -54 q 813 -87 824 -62 q 778 -137 802 -111 q 730 -162 754 -162 q 614 68 614 -162 q 636 322 614 188 l 624 322 q 362 0 454 0 q 250 133 250 0 q 283 295 250 187 q 349 519 316 403 q 382 698 382 634 q 273 831 382 831 q 122 716 172 831 q 89 560 89 638 q 97 484 89 522 q 200 369 121 369 q 179 353 192 353 q 49 480 79 353 q 39 560 39 520 q 82 732 39 646 q 272 859 147 859 q 413 805 369 859 q 457 665 457 751 q 394 373 457 579 q 332 103 332 167 q 376 39 332 39 q 482 148 411 39 q 687 540 599 329 q 759 623 721 623 q 783 598 783 623 q 707 324 736 484 q 679 40 679 163 z "},"V":{"ha":698,"x_min":-2,"x_max":700,"o":"m 48 711 q 40 678 40 692 q 49 663 40 663 q 24 648 47 648 q -2 687 -2 648 q 41 760 -2 726 q 155 794 86 794 q 271 743 224 794 q 334 617 317 691 q 351 446 351 542 q 279 -20 351 244 q 288 -33 274 -33 q 308 -24 298 -33 q 529 340 424 82 q 633 753 633 598 q 603 822 633 822 q 620 848 607 838 q 651 859 633 859 q 700 776 700 859 q 626 452 700 656 q 441 83 551 248 q 247 -81 331 -81 q 189 -26 189 -81 q 247 227 220 67 q 273 501 273 388 q 140 768 273 768 q 48 711 72 768 z "},"W":{"ha":1036,"x_min":18,"x_max":1072,"o":"m 618 188 q 684 39 618 39 q 788 129 736 39 q 876 348 841 219 q 912 593 910 478 q 813 709 858 638 q 769 801 769 780 q 788 842 769 821 q 828 862 807 862 q 909 793 874 862 q 948 627 944 724 q 1019 591 989 591 q 1058 610 1049 591 q 1071 593 1071 610 q 1037 552 1071 562 l 1017 550 q 948 570 982 550 q 904 312 941 443 q 808 91 868 181 q 684 0 748 0 q 561 87 596 0 q 533 254 533 157 q 536 307 533 280 q 197 -81 323 -81 q 142 -31 142 -81 q 142 -26 142 -29 q 274 578 274 332 q 166 768 274 768 q 69 709 97 768 q 60 677 60 690 q 68 663 60 663 q 42 648 66 648 q 19 678 19 648 q 65 759 19 723 q 179 794 111 794 q 347 538 347 794 q 324 324 347 442 q 287 155 302 206 q 233 -20 272 104 q 239 -32 230 -32 q 258 -22 247 -31 q 411 167 336 46 q 571 494 520 346 q 676 663 626 663 q 698 640 698 663 q 631 331 671 556 q 618 188 618 252 m 836 828 q 831 818 831 826 q 835 794 831 810 q 861 739 839 779 q 910 667 883 699 q 879 782 902 736 q 836 828 857 828 z "},"X":{"ha":721,"x_min":-11,"x_max":851,"o":"m 48 711 q 40 678 40 692 q 49 663 40 663 q 24 648 47 648 q -2 686 -2 648 q 43 759 -2 723 q 162 794 88 794 q 317 709 252 794 q 432 477 382 624 q 671 778 593 696 q 803 861 748 860 q 836 848 823 861 q 849 821 848 834 l 851 808 q 657 691 768 808 q 446 437 563 593 q 491 282 466 373 q 533 127 516 190 q 571 3 550 64 q 666 -121 614 -121 q 710 -100 693 -121 q 714 -119 720 -100 q 649 -158 704 -154 q 521 -62 576 -158 q 393 302 460 46 q 381 349 386 333 q 209 124 251 171 q 138 49 167 78 q 42 -2 83 -2 q 6 11 19 -2 q -9 38 -8 24 l -11 51 q 157 141 64 51 q 369 391 249 230 q 213 739 290 673 q 140 768 180 768 q 48 711 72 768 z "},"Y":{"ha":830,"x_min":-26,"x_max":783,"o":"m 246 -337 q 383 -297 322 -337 q 479 -210 443 -257 q 547 -66 514 -163 q 591 84 579 32 q 614 198 602 137 q 627 263 626 259 q 629 274 628 268 q 632 292 630 280 q 641 338 634 304 l 633 338 q 382 36 478 36 q 271 169 271 36 q 327 423 271 229 q 382 704 382 617 q 356 796 382 761 q 273 831 330 831 q 122 716 172 831 q 89 560 89 638 q 97 484 89 522 q 200 369 121 369 q 179 353 192 353 q 49 480 79 353 q 39 560 39 520 q 82 732 39 646 q 272 859 147 859 q 413 805 369 859 q 457 665 457 751 q 405 391 457 579 q 353 138 353 202 q 397 74 353 74 q 500 180 433 74 q 689 546 609 348 q 759 623 720 623 q 783 598 783 623 q 706 281 744 503 q 611 -91 660 21 q 554 -196 590 -140 q 477 -285 519 -252 q 376 -340 436 -318 q 247 -362 317 -362 q 8 -247 77 -362 q -24 -128 -24 -191 q -14 -57 -24 -93 q 82 71 11 37 q 136 86 112 86 q 179 64 172 86 l 181 57 q 61 -23 104 57 q 33 -119 33 -76 q 167 -326 33 -284 q 246 -337 202 -337 z "},"Z":{"ha":742,"x_min":-23,"x_max":840,"o":"m 393 859 q 422 859 393 859 q 549 833 451 859 q 676 807 647 807 q 739 833 706 807 q 798 860 772 860 q 814 849 808 860 q 819 828 820 838 q 818 818 818 819 q 734 732 782 818 q 648 563 699 670 q 577 412 598 456 q 654 414 634 414 q 664 401 666 414 q 647 388 662 388 q 621 387 632 388 q 591 384 609 386 q 561 382 572 383 q 286 3 420 103 q 433 -68 320 -12 q 609 -147 546 -123 q 707 -171 672 -171 q 761 -165 741 -171 q 792 -150 781 -159 q 822 -111 814 -132 q 840 -139 840 -111 q 799 -214 840 -186 q 704 -242 758 -242 q 584 -218 651 -242 q 475 -170 518 -193 q 347 -94 432 -147 q 238 -28 262 -42 q 106 -63 170 -63 q -14 -14 12 -63 q -22 15 -22 -1 q -1 51 -22 31 q 74 70 20 70 q 238 23 128 70 q 472 371 339 109 q 378 364 419 364 q 333 391 338 364 q 347 411 334 408 q 391 404 352 404 q 491 408 430 404 q 541 507 508 440 q 593 611 574 574 q 684 770 642 710 q 632 764 660 764 q 504 791 603 764 q 356 818 406 818 q 177 713 229 818 q 150 618 150 661 q 158 544 150 576 q 230 457 178 469 l 248 454 q 211 429 242 429 q 117 504 146 429 q 103 587 103 542 q 123 684 103 631 q 282 840 168 800 q 393 859 334 859 m 9 10 q 37 -22 9 -10 q 107 -33 64 -33 q 198 -4 149 -33 q 61 42 102 42 q 10 19 19 42 q 9 10 9 14 z "},"[":{"ha":290,"x_min":4,"x_max":287,"o":"m 100 -83 q 154 -90 132 -83 q 180 -103 176 -97 l 186 -110 l 4 -110 q 56 360 16 -28 q 103 836 96 748 l 287 836 q 282 828 286 832 q 258 816 279 823 q 206 809 238 809 l 157 809 q 56 -83 80 123 l 100 -83 z "},"\\":{"ha":523,"x_min":91,"x_max":327,"o":"m 148 766 q 152 749 148 766 q 229 372 156 731 q 314 -36 303 13 q 326 -107 326 -86 q 311 -129 326 -129 q 297 -108 301 -129 q 192 332 277 -16 q 99 715 108 680 q 91 773 91 750 q 120 816 91 816 q 133 808 126 816 q 148 766 140 801 z "},"]":{"ha":361,"x_min":20,"x_max":302,"o":"m 207 809 q 153 816 174 809 q 127 829 131 822 l 121 836 l 302 836 q 252 378 292 758 q 202 -110 212 -1 l 20 -110 q 24 -102 21 -107 q 48 -91 28 -98 q 101 -83 69 -83 l 150 -83 q 251 809 181 189 l 207 809 z "},"^":{"ha":509,"x_min":2,"x_max":508,"o":"m 508 496 l 470 496 l 302 652 l 41 496 l 2 496 l 266 683 l 320 683 l 508 496 z "},"_":{"ha":681,"x_min":6,"x_max":558,"o":"m 517 -76 l 18 -77 q 6 -68 6 -77 q 57 -36 6 -41 l 548 -44 q 558 -56 559 -44 q 517 -76 549 -73 z "},"`":{"ha":472,"x_min":210,"x_max":374,"o":"m 258 760 q 337 677 299 722 q 374 621 374 631 q 362 610 374 610 q 310 638 349 610 q 228 709 271 667 q 211 736 211 724 q 218 759 211 748 q 236 771 224 771 q 258 760 247 771 z "},"a":{"ha":531,"x_min":1,"x_max":471,"o":"m 93 0 q 2 143 2 0 q 44 331 2 229 q 199 527 103 474 q 276 549 240 549 q 332 533 311 549 q 358 502 352 518 l 364 488 q 346 469 361 469 q 325 477 328 469 q 319 492 322 486 q 303 508 316 498 q 276 519 291 519 q 144 389 203 519 q 78 107 78 239 q 104 40 78 40 q 164 87 126 40 q 244 206 202 134 q 363 418 318 328 q 441 498 401 498 q 462 472 462 498 q 437 412 452 451 q 396 258 421 373 q 370 28 370 142 q 404 -87 370 -87 q 429 -75 418 -87 q 449 -40 440 -63 q 464 -28 452 -28 q 471 -31 469 -28 q 471 -42 473 -34 q 463 -64 469 -50 q 439 -101 458 -78 q 401 -124 421 -124 q 329 -63 354 -124 q 304 81 304 -2 q 317 241 304 164 l 306 241 q 93 0 164 0 z "},"b":{"ha":557,"x_min":30,"x_max":481,"o":"m 212 102 q 248 36 212 36 q 348 158 293 36 q 411 420 411 298 q 368 503 411 503 q 271 433 324 503 q 177 274 217 362 q 108 116 137 187 q 80 38 80 46 q 63 21 80 21 q 30 110 30 21 q 66 465 30 287 q 150 751 101 643 q 241 858 199 858 q 259 840 259 858 q 157 528 200 710 q 93 182 114 346 l 101 182 q 218 416 152 312 q 296 507 254 473 q 377 541 338 541 q 474 439 456 541 q 481 376 481 409 q 446 197 481 293 q 314 16 396 59 q 257 0 287 0 q 181 100 181 0 q 211 223 181 153 q 288 326 240 292 q 304 321 298 331 q 303 313 306 316 q 237 216 261 280 q 212 102 212 151 z "},"c":{"ha":431,"x_min":10,"x_max":431,"o":"m 294 92 q 313 102 299 102 q 328 96 328 102 l 328 92 q 303 53 323 80 q 265 9 283 26 q 218 -22 247 -8 q 159 -36 189 -36 q 10 77 42 -36 q 33 314 -19 181 q 179 506 86 448 q 272 536 228 536 q 337 510 317 536 q 413 607 367 607 q 431 588 431 607 q 408 553 422 574 q 371 476 394 531 q 348 378 348 420 q 336 363 348 363 q 319 389 321 363 q 327 470 319 432 q 278 504 320 504 q 137 383 198 504 q 77 147 77 262 q 168 2 77 2 q 235 24 203 2 q 280 69 267 47 l 294 92 z "},"d":{"ha":541,"x_min":0,"x_max":579,"o":"m 93 0 q 0 143 0 0 q 42 327 0 227 q 194 517 100 467 q 269 539 236 539 q 320 527 302 539 q 343 503 338 516 l 349 491 q 329 472 346 472 q 305 491 312 472 q 271 509 298 509 q 142 381 199 509 q 77 108 77 237 q 104 40 77 40 q 169 95 127 40 q 258 229 212 150 q 368 428 320 338 q 465 731 408 601 q 560 860 522 860 q 579 841 579 860 q 516 683 552 783 q 455 493 480 583 q 409 277 430 402 q 389 40 389 151 q 461 -126 389 -126 q 513 -102 489 -126 q 547 -54 537 -78 q 567 -48 552 -42 q 571 -54 572 -50 q 554 -88 564 -69 q 515 -134 544 -107 q 456 -162 486 -162 q 323 87 323 -162 q 339 274 323 174 l 324 274 q 93 0 168 0 z "},"e":{"ha":432,"x_min":-2,"x_max":376,"o":"m 290 539 q 374 440 374 539 q 337 321 374 383 q 166 218 272 218 q 138 223 149 218 q 121 240 127 229 q 266 331 200 240 q 319 466 319 404 q 282 511 319 511 q 146 397 209 511 q 78 141 78 272 q 141 8 78 30 q 172 3 153 3 q 212 13 191 3 q 248 36 233 22 q 296 94 277 62 q 312 103 300 103 q 331 97 332 103 q 306 56 328 84 q 266 9 284 27 q 218 -22 248 -8 q 159 -36 189 -36 q 9 76 41 -36 q -1 153 -1 113 q 33 316 -1 228 q 183 508 88 449 q 290 539 236 539 z "},"f":{"ha":344,"x_min":-103,"x_max":482,"o":"m -47 -348 q -103 -280 -103 -348 q -73 -149 -103 -232 q -13 -4 -43 -66 q 64 142 41 102 q 110 484 90 381 q 57 481 83 481 q 24 509 30 481 q 38 534 24 531 q 70 528 42 528 q 120 530 98 528 q 367 862 192 862 q 388 846 389 862 q 380 834 387 834 q 259 756 304 834 q 186 534 213 677 q 347 544 318 544 q 355 531 357 544 q 332 518 353 518 q 178 496 311 518 q 147 257 163 413 q 121 18 131 100 q 98 -127 111 -64 q 66 -241 84 -189 q -47 -348 27 -348 m -46 -316 q 7 -258 -11 -316 q 36 -126 27 -194 q 59 87 49 -22 q -42 -147 -24 -90 q -72 -279 -72 -242 q -46 -316 -72 -316 m 400 683 q 386 706 387 683 q 409 834 386 776 q 469 893 433 893 q 482 877 482 893 q 468 854 474 864 q 454 831 461 844 q 439 801 447 818 q 424 768 431 784 q 410 697 410 731 q 400 683 410 683 z "},"g":{"ha":513,"x_min":-86,"x_max":463,"o":"m 93 0 q 2 143 2 0 q 44 331 2 229 q 199 527 103 474 q 276 549 240 549 q 332 533 311 549 q 358 502 352 518 l 364 488 q 346 469 361 469 q 325 477 328 469 q 319 492 322 486 q 303 508 316 498 q 276 519 291 519 q 144 389 203 519 q 78 107 78 239 q 104 40 78 40 q 223 168 141 40 q 370 431 304 297 q 440 499 403 499 q 463 472 463 499 q 450 447 459 464 q 418 345 441 429 q 376 153 394 261 q 343 -17 357 44 q 441 -90 428 -31 q 443 -117 443 -100 q 430 -147 443 -134 q 407 -160 417 -160 q 408 -133 409 -152 q 401 -100 407 -113 q 378 -72 394 -87 q 334 -51 361 -58 q 236 -274 300 -187 q 38 -373 162 -373 q -83 -309 -53 -373 q -84 -303 -84 -306 q -72 -294 -84 -297 q -56 -302 -60 -291 q 38 -348 -36 -348 q 193 -253 138 -348 q 270 -46 243 -170 q -39 -199 70 -50 q -60 -202 -46 -209 q -64 -191 -68 -198 q 69 -68 -17 -119 q 277 -13 154 -18 q 298 104 289 42 q 314 201 308 166 q 323 252 321 237 l 311 252 q 93 0 164 0 z "},"h":{"ha":507,"x_min":30,"x_max":439,"o":"m 203 322 q 174 269 203 322 q 112 133 144 216 q 79 36 79 51 q 63 21 79 21 q 30 110 30 21 q 66 465 30 287 q 150 751 101 643 q 241 858 199 858 q 259 840 259 858 q 161 543 200 710 q 94 188 121 377 l 102 188 q 379 534 243 534 q 436 480 436 534 q 416 413 428 454 q 383 263 403 371 q 363 74 363 156 q 398 -43 363 -43 q 422 -33 410 -43 q 439 -22 434 -22 q 438 -47 454 -22 q 418 -68 433 -54 q 389 -81 403 -81 q 322 -21 346 -81 q 298 137 298 40 q 347 473 298 300 q 333 488 349 490 q 318 479 326 487 q 203 322 262 429 z "},"i":{"ha":242,"x_min":29,"x_max":232,"o":"m 29 94 q 63 388 29 259 q 149 517 97 517 q 174 489 174 517 q 147 412 163 460 q 103 239 130 364 q 76 17 76 114 q 59 1 76 1 q 29 94 29 1 m 178 621 q 154 666 154 621 q 169 722 154 692 q 210 751 183 751 q 232 726 232 751 q 191 640 232 700 l 178 621 z "},"j":{"ha":279,"x_min":-104,"x_max":273,"o":"m -47 -348 q -103 -280 -103 -348 q -71 -143 -103 -232 q -7 8 -38 -54 q 68 147 34 87 q 140 488 93 421 q 189 517 161 517 q 214 489 214 517 q 139 177 159 356 q 86 -178 110 -84 q -47 -348 40 -348 m -46 -316 q 23 -198 0 -316 q 52 -7 43 -96 q 61 91 60 82 q -42 -146 -23 -89 q -72 -278 -72 -240 q -46 -316 -72 -316 m 219 621 q 196 666 196 621 q 209 722 196 692 q 250 751 223 751 q 273 726 273 751 q 260 686 273 712 q 233 640 247 660 l 219 621 z "},"k":{"ha":507,"x_min":30,"x_max":488,"o":"m 342 346 q 379 456 379 404 q 347 508 379 508 q 258 439 308 508 q 171 284 209 371 q 106 124 132 198 q 79 34 79 50 q 63 21 78 21 q 30 110 30 21 q 66 465 30 287 q 150 751 101 643 q 241 858 199 858 q 259 840 259 858 q 157 523 200 710 q 97 213 121 379 l 106 213 q 359 539 232 539 q 438 449 438 539 q 395 327 438 391 q 287 241 352 262 q 341 89 300 229 q 381 -2 356 39 q 436 -43 407 -43 q 480 -22 466 -43 q 487 -28 487 -22 q 481 -44 487 -33 q 421 -81 457 -78 q 336 -34 376 -81 q 273 68 296 12 q 232 178 251 123 q 208 240 212 233 q 198 253 200 246 q 342 346 286 253 z "},"l":{"ha":292,"x_min":38,"x_max":284,"o":"m 163 -162 q 68 -94 99 -162 q 38 109 38 -27 q 78 430 38 244 q 172 738 118 616 q 266 860 226 860 q 284 838 284 860 q 226 677 261 784 q 166 479 190 570 q 123 266 142 388 q 103 56 103 143 q 121 -78 103 -31 q 168 -126 138 -126 q 217 -102 193 -126 q 250 -54 240 -78 q 270 -48 256 -42 q 273 -57 276 -50 q 264 -76 270 -64 q 242 -110 258 -87 q 163 -162 209 -162 z "},"m":{"ha":739,"x_min":13,"x_max":666,"o":"m 272 136 q 322 481 272 272 q 316 491 326 492 q 301 484 308 490 q 193 332 252 443 q 99 129 134 221 q 63 22 63 38 q 47 9 63 9 q 13 97 13 9 q 47 397 13 263 q 128 531 80 531 q 149 508 149 531 q 76 177 98 347 l 86 177 q 356 543 232 543 q 409 491 409 543 q 333 184 357 336 l 342 184 q 416 326 379 262 q 503 445 453 390 q 593 500 553 500 q 647 449 647 500 q 589 74 589 257 q 624 -43 589 -43 q 649 -33 637 -43 q 666 -22 661 -22 q 664 -47 681 -22 q 645 -68 660 -54 q 616 -81 630 -81 q 548 -21 572 -81 q 524 137 524 40 q 560 436 524 307 q 554 443 562 443 q 541 437 548 442 q 400 235 478 382 q 322 61 322 88 q 304 48 322 48 q 272 136 272 48 z "},"n":{"ha":498,"x_min":13,"x_max":424,"o":"m 86 180 q 364 534 229 534 q 421 480 421 534 q 401 413 413 454 q 368 263 389 371 q 348 74 348 156 q 382 -43 348 -43 q 408 -33 396 -43 q 424 -22 420 -22 q 424 -47 440 -22 q 404 -68 419 -54 q 373 -81 389 -81 q 307 -21 331 -81 q 283 137 283 40 q 331 473 283 290 q 322 488 336 488 q 302 479 313 488 q 190 324 249 432 q 98 132 131 217 q 64 33 64 47 q 49 19 64 19 q 13 107 13 19 q 47 407 13 272 q 129 541 81 541 q 149 517 149 541 q 76 180 98 351 l 86 180 z "},"o":{"ha":459,"x_min":-2,"x_max":471,"o":"m 136 -10 q -1 178 -1 -10 q 52 389 -1 283 q 213 522 120 522 q 236 516 227 522 q 248 496 244 509 q 127 383 178 496 q 76 162 76 271 q 148 30 76 30 q 233 93 189 30 q 307 258 278 156 q 337 463 337 360 l 337 477 q 280 532 302 499 q 258 581 258 566 q 272 611 258 597 q 300 624 286 624 q 341 587 321 624 q 369 501 361 549 q 429 478 403 478 q 471 487 456 478 q 460 459 471 471 q 426 447 449 447 q 372 458 402 447 q 340 243 371 351 q 253 63 309 136 q 136 -10 198 -10 z "},"p":{"ha":538,"x_min":-144,"x_max":479,"o":"m 210 102 q 246 36 210 36 q 346 158 291 36 q 409 420 409 298 q 365 503 409 503 q 269 436 321 503 q 176 278 217 368 q 107 109 136 189 q 72 -8 78 30 q 62 -66 66 -47 q 52 -128 59 -86 q 38 -192 44 -170 q 22 -248 32 -214 q 2 -301 12 -282 q -22 -338 -9 -319 q -90 -374 -49 -374 q -143 -313 -143 -374 q 23 97 -143 -204 q 58 294 40 219 q 141 572 97 473 q 220 670 184 670 q 238 649 238 670 q 128 291 184 508 l 121 266 l 136 266 q 374 541 262 541 q 479 376 479 541 q 418 136 479 256 q 256 0 350 0 q 179 100 179 0 q 208 223 179 153 q 286 326 238 292 q 302 321 296 331 q 301 313 303 316 q 234 216 259 280 q 210 102 210 151 m -113 -303 q -89 -337 -113 -337 q -14 -201 -39 -337 q 17 34 -6 -154 q -109 -269 -84 -161 q -113 -303 -113 -289 z "},"q":{"ha":533,"x_min":1,"x_max":463,"o":"m 93 0 q 2 143 2 0 q 44 331 2 229 q 199 527 103 474 q 276 549 240 549 q 332 533 311 549 q 358 502 352 518 l 364 488 q 346 469 361 469 q 325 477 328 469 q 319 492 322 486 q 303 508 316 498 q 276 519 291 519 q 144 389 203 519 q 78 107 78 239 q 104 40 78 40 q 201 138 134 40 q 318 333 267 236 l 370 431 q 440 499 403 499 q 463 472 463 499 q 423 353 449 441 q 381 188 398 264 q 351 1 364 112 q 337 -226 337 -110 q 378 -341 337 -341 q 403 -331 390 -341 q 419 -320 416 -320 q 426 -323 423 -320 q 426 -331 428 -326 q 419 -344 424 -337 q 399 -366 414 -352 q 369 -379 383 -379 q 276 -163 276 -379 q 316 241 276 26 l 306 241 q 93 0 164 0 z "},"r":{"ha":426,"x_min":19,"x_max":427,"o":"m 353 319 q 311 411 311 319 q 331 509 311 463 q 162 265 256 443 q 69 32 69 87 q 51 19 69 19 q 19 107 19 19 q 52 407 19 272 q 133 541 86 541 q 154 517 154 541 q 81 184 103 354 l 89 184 q 288 509 179 392 q 401 576 350 576 q 419 569 412 576 q 427 552 427 562 q 408 529 419 544 q 378 455 397 513 q 359 328 359 397 q 353 319 359 319 z "},"s":{"ha":421,"x_min":-18,"x_max":337,"o":"m 79 38 q 129 -40 79 -40 q 216 37 176 -40 q 257 230 257 113 q 236 390 257 287 q 216 525 216 493 q 218 567 216 557 q 134 412 203 543 q 12 203 66 280 q 0 201 8 199 q -13 207 -8 202 q -18 214 -18 212 q -17 218 -18 217 q 105 426 36 293 q 221 624 174 559 q 313 690 268 690 q 337 670 337 690 q 318 634 337 657 q 258 496 258 567 q 290 333 258 453 q 322 158 322 212 q 268 -8 322 60 q 144 -77 213 -77 q 47 36 47 -77 q 98 212 47 120 q 202 337 150 304 q 215 329 212 343 q 211 310 218 314 q 109 168 152 277 q 79 38 79 91 z "},"t":{"ha":321,"x_min":22,"x_max":351,"o":"m 66 481 q 22 517 22 481 q 33 533 22 530 q 37 534 34 534 q 62 527 43 527 q 120 529 80 527 q 220 670 172 670 q 239 649 239 670 q 199 534 221 604 q 342 547 309 547 q 351 538 351 547 q 328 520 351 520 q 187 497 316 520 q 99 47 99 219 q 168 -126 99 -126 q 220 -102 196 -126 q 254 -54 244 -78 q 273 -48 259 -42 q 278 -54 280 -50 q 261 -88 271 -69 q 222 -134 251 -107 q 163 -162 193 -162 q 31 68 31 -162 q 103 483 31 262 q 66 481 88 481 z "},"u":{"ha":528,"x_min":-1,"x_max":469,"o":"m 389 -83 q 414 -72 402 -83 q 436 -36 426 -60 q 449 -26 437 -26 q 458 -36 461 -26 q 449 -60 456 -46 q 424 -98 443 -74 q 384 -122 404 -122 q 316 -67 340 -122 q 290 71 290 -11 q 302 239 290 152 l 292 239 q 86 4 158 4 q 0 135 0 4 q 56 396 0 266 q 163 539 117 539 q 183 514 183 539 q 103 274 137 391 q 70 101 70 158 q 97 43 70 43 q 153 89 116 43 q 229 200 190 134 q 356 440 312 341 q 447 539 400 539 q 469 514 469 539 q 368 178 398 373 q 356 26 356 100 q 389 -83 356 -83 z "},"v":{"ha":432,"x_min":-2,"x_max":454,"o":"m 351 503 q 413 479 383 479 q 454 487 442 479 q 442 459 454 472 q 405 447 429 447 q 353 458 381 447 q 313 244 350 353 q 219 61 277 134 q 104 -13 161 -13 q 22 34 47 -13 q -2 142 -2 81 q 18 299 -2 216 q 67 434 39 383 q 117 486 94 486 q 139 462 139 486 q 69 122 69 220 q 112 24 69 24 q 198 90 150 24 q 282 263 247 156 q 318 472 318 370 l 318 479 q 266 534 286 502 q 246 583 246 567 q 260 612 246 599 q 291 626 274 626 q 328 588 311 626 q 351 503 346 551 z "},"w":{"ha":699,"x_min":0,"x_max":706,"o":"m 602 503 q 664 479 634 479 q 706 487 693 479 q 693 459 706 472 q 656 447 680 447 q 604 458 632 447 q 570 244 602 353 q 487 61 538 134 q 386 -13 436 -13 q 309 26 336 -13 q 281 149 281 69 q 287 247 281 194 q 75 0 149 0 q 1 124 1 0 q 64 400 1 253 q 162 522 118 517 q 183 499 183 522 q 150 416 170 467 q 97 254 130 366 q 64 91 64 143 q 88 38 64 38 q 178 131 117 38 q 287 318 240 224 l 334 410 q 390 472 366 472 q 414 449 414 472 q 347 86 347 217 q 382 24 347 24 q 466 91 422 24 q 539 263 510 157 q 569 472 569 369 l 569 479 q 517 534 537 502 q 497 583 497 567 q 511 612 497 599 q 542 626 526 626 q 580 588 563 626 q 602 503 597 551 z "},"x":{"ha":446,"x_min":-22,"x_max":406,"o":"m 327 -39 q 238 26 279 -39 q 153 204 197 91 q 60 67 96 113 q 2 21 24 21 q -16 28 -10 21 q -22 43 -22 36 l -22 51 q -4 62 -14 51 q 13 80 6 72 q 30 102 20 88 q 48 127 40 116 q 68 156 56 138 q 88 187 80 174 q 111 222 97 200 q 134 257 111 222 q 120 297 129 272 q 106 337 111 321 q 93 373 100 352 q 80 407 86 393 q 68 436 74 420 q 56 461 61 451 q 44 478 51 470 q 23 494 33 494 q 26 506 24 499 q 41 526 28 513 q 72 538 53 538 q 127 484 100 538 q 187 334 154 431 q 373 517 317 517 q 395 509 387 517 q 406 486 403 501 q 316 432 366 486 q 203 282 267 378 q 293 38 268 78 q 333 -1 318 -1 q 360 9 348 -1 q 377 20 372 20 q 376 -4 392 20 q 356 -26 371 -12 q 327 -39 341 -39 z "},"y":{"ha":517,"x_min":-93,"x_max":468,"o":"m 30 -348 q 187 -253 130 -348 q 262 -46 236 -170 q -47 -199 61 -50 q -68 -202 -53 -209 q -72 -191 -76 -198 q 61 -68 -24 -119 q 269 -13 147 -18 q 292 117 281 42 q 318 261 303 191 l 308 261 q 88 4 163 4 q 3 134 3 4 q 59 396 3 264 q 160 538 114 528 l 167 539 q 186 514 186 539 q 154 436 173 484 q 104 277 136 388 q 73 105 73 167 q 100 43 73 43 q 200 151 131 43 q 376 471 301 309 q 444 539 408 539 q 468 513 468 539 q 417 368 447 474 q 368 153 387 261 q 336 -17 349 44 q 433 -90 420 -31 q 436 -117 436 -100 q 422 -147 436 -134 q 399 -160 409 -160 q 400 -133 401 -152 q 393 -100 399 -113 q 370 -72 387 -87 q 327 -51 353 -58 q 30 -373 241 -373 q -91 -309 -61 -373 q -92 -303 -92 -306 q -81 -295 -92 -297 q -63 -302 -69 -293 q 30 -348 -43 -348 z "},"z":{"ha":463,"x_min":-99,"x_max":382,"o":"m -12 -373 q -99 -290 -99 -373 q -24 -117 -99 -217 q 164 26 51 -18 q 176 23 170 28 q 181 12 181 18 q 174 2 181 6 q -18 -153 60 -40 q -70 -281 -70 -231 q -31 -332 -70 -331 q 170 -206 61 -332 q 294 8 262 -99 q 306 69 306 44 q 257 121 306 121 q 164 96 219 121 q 94 71 110 71 q 62 109 69 71 l 60 122 q 227 236 142 122 q 313 426 298 333 q 316 456 316 442 q 272 510 316 509 q 185 476 228 510 q 115 398 142 442 q 71 319 88 354 q 54 276 54 283 q 44 265 54 268 q 23 268 33 262 q 12 286 12 273 q 33 338 12 299 q 88 424 54 378 q 174 506 122 470 q 276 541 226 541 q 354 508 327 541 q 382 421 382 474 q 236 149 382 278 q 257 151 249 151 q 361 36 361 151 q 299 -154 361 -48 q 111 -342 222 -284 q -12 -373 49 -373 z "},"{":{"ha":351,"x_min":40,"x_max":377,"o":"m 100 282 q 47 373 100 373 q 41 386 41 373 q 53 418 41 418 q 109 451 87 418 q 141 534 131 484 q 166 642 151 583 q 197 749 180 700 q 252 832 213 799 q 347 866 291 866 q 368 858 360 866 q 377 838 376 851 q 280 801 314 838 q 234 706 246 763 q 217 589 223 649 q 129 392 200 436 q 153 311 153 369 q 142 189 153 252 q 123 36 123 81 q 210 -77 123 -77 q 181 -99 208 -99 q 108 -64 132 -99 q 84 23 84 -29 q 92 197 84 126 q 100 282 100 268 z "},"|":{"ha":404,"x_min":141,"x_max":220,"o":"m 153 -138 q 141 -116 141 -138 q 159 709 146 233 q 201 801 160 801 q 214 793 209 801 q 219 773 219 784 l 176 -73 q 153 -138 174 -138 z "},"}":{"ha":357,"x_min":-29,"x_max":308,"o":"m 248 483 q 301 392 248 392 q 307 381 307 392 q 303 359 307 369 q 294 349 300 349 q 232 303 254 349 q 196 191 209 257 q 167 59 183 124 q 109 -53 150 -7 q 2 -99 68 -99 q -19 -92 -11 -99 q -29 -71 -27 -84 q 68 -34 33 -71 q 113 61 102 3 q 131 178 124 118 q 220 373 148 331 q 196 456 196 398 q 207 578 196 513 q 226 730 226 684 q 139 842 226 842 q 147 858 139 850 q 167 866 154 866 q 239 831 216 866 q 263 742 263 796 q 256 571 263 642 q 248 483 248 499 z "},"~":{"ha":528,"x_min":77,"x_max":526,"o":"m 394 513 q 368 513 390 513 q 279 497 346 513 q 183 481 213 481 q 127 498 153 481 q 89 533 100 516 l 77 550 l 113 550 q 168 526 132 526 q 271 547 203 526 q 378 568 339 568 q 453 547 417 568 q 508 504 490 526 l 526 483 l 489 483 q 394 513 454 513 z "},"":{"ha":347,"x_min":3,"x_max":218,"o":"m 156 507 q 191 539 164 539 q 218 513 218 539 q 193 429 218 491 l 184 409 q 156 441 166 409 q 150 474 150 458 q 156 507 150 490 m 200 244 q 174 -2 200 137 q 106 -246 149 -141 q 21 -351 63 -351 q 3 -333 3 -351 q 99 -13 48 -234 q 150 294 150 208 q 167 310 150 310 q 200 244 200 310 z "},"":{"ha":502,"x_min":0,"x_max":354,"o":"m 142 -213 q 130 -192 130 -209 q 154 -36 130 -176 q 10 78 41 -33 q 0 154 0 114 q 34 317 0 230 q 182 508 88 451 q 254 534 217 529 q 269 620 261 573 q 289 734 280 689 q 299 746 290 746 q 306 744 302 746 q 326 709 326 738 q 324 694 326 701 q 319 661 323 688 q 308 601 314 634 q 294 534 301 568 q 333 514 318 530 q 351 483 348 498 l 354 469 l 327 469 q 315 490 327 479 q 289 503 303 501 q 194 4 197 16 q 248 34 223 12 q 284 74 273 57 l 294 92 q 313 102 299 102 q 328 96 328 102 l 328 92 q 236 -11 294 24 q 187 -32 212 -27 q 174 -99 182 -59 q 156 -206 160 -176 q 148 -216 153 -216 q 142 -213 144 -216 m 77 150 q 161 2 77 9 q 248 499 228 388 q 126 361 176 473 q 77 150 77 249 z "},"":{"ha":808,"x_min":-46,"x_max":729,"o":"m 557 347 q 418 343 501 347 q 282 40 369 124 q 546 -29 467 -29 q 611 -14 584 -29 q 644 16 638 1 l 652 31 q 669 2 670 31 q 626 -68 667 -42 q 531 -94 586 -94 q 416 -78 476 -94 q 324 -46 357 -61 q 230 1 291 -30 q 78 -36 167 -36 q -38 13 -10 -36 q -46 43 -46 27 q -24 78 -46 59 q 53 98 -3 98 q 228 58 110 98 q 336 340 294 133 q 236 338 294 338 q 199 362 203 338 q 211 381 198 379 q 236 373 217 373 l 341 373 q 394 619 377 564 q 557 780 447 780 q 604 764 588 780 q 620 733 620 749 l 621 718 q 584 729 610 729 q 541 720 559 729 q 510 689 523 711 q 487 647 497 667 q 468 588 478 627 q 453 524 459 549 q 439 449 448 499 q 424 373 430 399 l 571 373 q 579 360 581 373 q 557 347 578 347 m 648 490 q 638 485 648 486 q 619 489 629 484 q 609 501 609 493 q 634 684 609 614 q 702 753 660 753 q 721 746 713 753 q 729 724 729 738 q 657 576 678 673 q 648 490 648 534 m -13 38 q 14 7 -13 19 q 91 -6 41 -6 q 187 22 141 -6 q 30 70 94 70 q -12 47 -4 70 q -13 38 -13 42 z "},"":{"ha":628,"x_min":64,"x_max":536,"o":"m 520 522 q 534 510 534 522 q 528 494 534 502 l 451 418 q 472 330 472 381 q 414 146 472 231 l 500 59 q 502 37 512 48 q 480 39 492 27 l 397 121 q 264 48 338 48 q 154 94 190 48 l 92 33 q 81 28 87 28 q 68 33 71 28 q 66 43 66 38 q 71 54 66 49 l 139 122 q 131 177 131 151 q 183 327 131 262 q 271 384 221 373 q 282 382 278 387 q 285 370 286 377 q 280 362 284 363 q 213 279 238 350 q 196 186 196 231 q 262 74 196 74 q 372 167 328 74 q 410 323 410 244 q 343 440 410 440 q 268 409 302 440 q 230 398 248 393 q 228 403 224 399 q 140 492 190 442 q 134 509 132 500 q 144 520 137 519 q 162 513 152 521 l 249 427 q 351 466 299 466 q 431 440 402 466 l 508 517 q 520 522 513 522 z "},"":{"ha":650,"x_min":-1,"x_max":583,"o":"m 454 4 l 391 4 q 191 -113 319 -113 q 54 -42 84 -113 q 46 3 46 -21 q 64 56 46 27 q 120 86 83 86 q 147 71 141 86 l 148 67 q 84 22 101 67 q 78 -14 78 7 q 101 -61 78 -34 q 174 -87 123 -87 q 328 2 263 -87 l 283 2 q 260 20 260 2 q 268 31 261 30 q 296 26 271 26 q 342 24 321 26 q 368 72 360 56 q 300 71 343 71 q 276 89 277 71 q 283 100 277 99 q 300 94 287 94 l 378 94 q 447 324 411 176 l 438 324 q 269 179 349 179 q 193 270 193 179 q 232 445 193 328 q 270 622 270 562 q 181 719 270 719 q 61 642 106 719 q 30 537 30 589 q 37 489 30 512 q 139 412 57 412 q 110 393 138 393 q 8 472 31 393 q -1 540 -1 500 q 24 634 -1 580 q 181 746 77 746 q 289 702 251 746 q 328 592 328 659 q 291 409 328 524 q 253 251 253 293 q 278 208 253 208 q 342 246 307 208 q 409 338 378 283 q 500 537 472 453 q 561 620 528 620 q 577 613 572 620 q 582 603 582 607 q 581 598 582 600 q 507 346 549 527 q 436 92 464 166 l 480 92 q 487 83 489 92 q 464 74 484 74 q 427 73 443 74 q 403 22 418 49 l 463 22 q 470 13 472 22 q 454 4 468 4 z "},"":{"ha":463,"x_min":141,"x_max":214,"o":"m 151 366 l 158 656 q 197 741 159 741 q 213 713 213 741 q 210 648 213 708 q 203 504 207 588 q 196 366 199 421 l 151 366 m 152 -139 q 141 -118 141 -139 q 149 266 142 -41 l 191 266 q 173 -78 174 -54 q 152 -139 172 -139 z "},"":{"ha":616,"x_min":-24,"x_max":544,"o":"m 21 46 q 24 23 21 34 q 103 -18 38 -18 q 253 41 198 -18 q 309 192 309 100 q 247 328 309 272 q 193 372 220 351 q 130 481 130 422 q 183 596 130 540 q 301 663 236 652 l 301 668 q 364 797 301 738 q 499 857 428 857 q 532 844 521 857 q 543 818 543 831 l 543 804 q 506 812 533 812 q 411 769 456 812 q 366 666 366 727 q 429 562 366 616 q 482 514 456 539 q 544 381 544 456 q 499 245 544 307 q 370 159 453 183 q 288 16 359 74 q 109 -43 218 -43 q -19 27 1 -43 q -23 58 -23 42 q 11 147 -23 102 q 150 219 67 218 q 172 211 163 219 q 184 186 181 202 q 56 122 109 186 q 21 46 21 81 m 258 372 q 309 326 283 350 q 373 192 373 266 q 452 266 424 217 q 480 371 480 316 q 459 463 480 427 q 413 521 439 500 q 356 569 387 542 q 313 619 326 596 q 231 570 268 610 q 194 478 194 530 q 258 372 194 426 z "},"":{"ha":500,"x_min":154,"x_max":391,"o":"m 178 621 q 154 666 154 621 q 169 722 154 692 q 210 751 183 751 q 232 726 232 751 q 191 640 232 700 l 178 621 m 337 621 q 313 667 313 621 q 327 722 313 693 q 368 751 341 751 q 391 726 391 751 q 378 686 391 712 q 351 640 364 660 l 337 621 z "},"":{"ha":936,"x_min":124,"x_max":811,"o":"m 251 542 q 502 642 361 642 q 733 542 643 642 q 811 339 811 456 q 684 60 811 174 q 432 -40 573 -40 q 201 60 290 -40 q 124 262 124 146 q 251 542 124 428 m 148 263 q 219 78 148 157 q 434 -16 302 -16 q 669 78 566 -16 q 788 337 788 184 q 716 524 788 444 q 499 618 631 618 q 267 524 368 618 q 148 263 148 417 m 534 176 q 548 184 537 184 q 560 178 560 184 l 560 176 q 554 166 558 172 q 538 143 551 159 q 512 114 526 127 q 477 91 499 101 q 432 81 454 81 q 318 174 339 81 q 312 226 312 199 q 348 368 312 292 q 474 501 397 471 q 524 510 499 510 q 564 491 550 510 q 623 562 588 562 q 637 549 637 562 q 574 391 574 462 q 564 380 574 379 q 552 408 552 381 q 555 448 552 436 q 557 463 558 461 q 554 469 557 464 q 548 478 551 473 q 521 487 540 487 q 416 396 461 487 q 370 218 370 304 q 439 109 370 109 q 489 126 466 109 q 524 159 513 142 l 534 176 z "},"":{"ha":508,"x_min":89,"x_max":388,"o":"m 148 508 q 89 600 89 508 q 133 754 89 674 q 267 857 191 853 q 299 847 286 857 q 320 817 312 837 q 304 804 319 804 q 290 813 294 804 q 264 833 286 833 q 186 757 222 833 q 143 588 143 668 q 157 537 143 546 q 214 598 172 537 q 289 721 256 660 l 322 782 q 364 823 343 823 q 384 807 384 823 q 345 681 363 764 q 327 543 327 598 q 331 473 327 489 q 346 458 334 458 q 369 482 360 458 q 379 490 371 490 q 388 484 388 490 l 388 482 q 343 429 370 429 q 297 467 313 429 q 281 563 281 506 q 289 666 281 620 l 283 666 q 148 508 190 508 z "},"":{"ha":678,"x_min":39,"x_max":539,"o":"m 229 68 q 39 301 39 286 q 49 316 39 309 l 302 477 l 302 441 l 103 289 l 229 106 l 229 68 m 279 292 q 276 303 276 298 q 284 316 276 309 l 539 477 l 539 441 l 340 289 l 464 106 l 464 68 q 279 292 322 232 z "},"":{"ha":906,"x_min":69,"x_max":800,"o":"m 750 423 q 788 411 778 423 q 799 389 799 399 q 796 371 799 380 l 679 101 l 643 101 l 722 360 l 69 373 l 69 403 l 746 423 q 750 423 748 423 z "},"":{"ha":550,"x_min":94,"x_max":461,"o":"m 419 282 l 106 280 q 94 287 94 280 q 96 291 94 289 q 144 310 101 310 l 451 301 q 461 296 461 301 q 419 282 454 283 z "},"":{"ha":499,"x_min":96,"x_max":420,"o":"m 151 808 q 179 834 151 808 q 274 859 207 859 q 381 815 341 859 q 420 714 420 771 q 363 586 420 637 q 240 536 307 536 q 134 579 173 536 q 96 679 96 623 q 151 808 96 758 m 308 758 q 319 791 319 778 q 307 804 319 804 q 241 719 276 804 q 207 614 207 634 q 202 610 207 610 q 192 631 192 610 q 202 733 192 686 q 228 798 212 780 q 180 780 202 793 q 158 747 158 767 q 163 741 158 741 q 157 733 162 733 q 143 753 143 733 q 179 789 143 772 q 231 806 216 806 q 247 802 247 806 q 224 729 231 763 q 217 691 218 694 l 220 691 q 308 814 261 814 q 339 781 339 814 q 302 720 339 747 q 271 706 288 709 q 293 678 282 706 q 314 618 303 650 q 333 578 324 586 q 407 697 397 621 q 408 712 408 704 q 371 805 408 764 q 273 846 334 846 q 164 802 211 846 q 109 679 109 752 q 144 589 109 629 q 241 549 180 549 q 320 570 283 549 q 281 641 300 582 q 254 704 261 699 q 248 711 248 704 l 248 713 q 308 758 284 713 z "},"":{"ha":393,"x_min":103,"x_max":310,"o":"m 103 642 q 103 663 103 642 q 133 714 103 684 q 206 743 162 743 q 280 714 250 743 q 310 642 310 686 q 280 569 310 599 q 206 540 250 540 q 133 570 162 540 q 103 642 103 600 m 136 643 q 136 629 136 643 q 156 594 136 614 q 205 573 177 573 q 254 594 233 573 q 274 643 274 614 q 254 692 274 671 q 204 712 233 712 q 156 692 176 712 q 136 643 136 671 z "},"":{"ha":648,"x_min":70,"x_max":499,"o":"m 277 229 q 259 260 259 229 q 266 330 259 291 q 107 328 200 328 q 70 350 74 328 q 83 370 71 367 q 107 363 88 363 l 271 363 q 312 484 288 431 q 357 538 337 538 q 370 526 370 538 q 317 363 347 477 l 490 363 q 499 354 499 363 q 473 337 499 337 q 309 332 447 337 l 289 240 q 277 229 289 229 m 476 170 q 107 161 476 170 q 70 183 74 161 q 83 203 71 200 q 107 197 88 197 l 490 197 q 499 188 499 197 q 476 170 499 170 z "},"":{"ha":310,"x_min":51,"x_max":283,"o":"m 56 580 q 116 621 72 580 q 197 717 159 661 q 236 807 236 772 q 195 839 236 839 q 129 794 154 839 q 126 758 112 766 q 130 757 128 757 q 106 728 127 728 q 86 749 86 728 q 88 763 86 756 q 142 840 98 809 q 209 862 174 862 q 283 800 283 862 q 223 685 283 751 q 99 578 162 619 q 214 569 197 569 q 246 576 232 569 q 262 589 259 582 l 266 596 q 273 574 277 596 q 231 531 268 540 l 207 528 q 121 542 171 528 q 56 557 71 557 q 51 568 51 557 q 56 580 51 580 z "},"":{"ha":322,"x_min":31,"x_max":281,"o":"m 196 704 q 267 613 267 686 q 225 521 267 567 q 112 476 183 476 q 64 483 84 476 q 31 517 31 497 q 38 533 31 526 q 58 546 44 540 q 112 496 58 496 q 196 544 167 496 q 214 600 214 576 q 137 692 214 692 q 157 710 138 710 q 204 744 176 710 q 233 812 233 779 q 197 840 233 840 q 142 808 161 840 q 143 779 130 784 l 149 778 q 124 754 144 754 q 103 774 103 754 q 153 844 103 814 q 212 861 181 861 q 280 807 280 861 q 240 732 280 769 q 196 704 220 714 z "},"":{"ha":494,"x_min":288,"x_max":432,"o":"m 424 726 q 350 649 391 686 q 298 612 309 612 q 288 623 288 612 q 313 674 288 633 q 373 753 339 714 q 399 770 388 770 q 421 765 411 770 q 431 749 431 760 q 424 726 431 739 z "},"":{"ha":528,"x_min":-88,"x_max":469,"o":"m -31 -320 q -88 -210 -88 -320 q -47 62 -88 -114 q 29 322 -11 210 q 163 539 106 539 q 183 514 183 539 q 103 274 137 391 q 70 101 70 158 q 97 43 70 43 q 220 183 136 43 q 353 431 304 323 q 447 539 402 539 q 469 514 469 539 q 399 322 440 469 q 358 87 358 176 q 393 -2 358 -2 q 419 10 408 -2 q 440 46 431 22 q 451 56 442 56 q 464 49 466 56 q 434 -11 458 20 q 390 -41 410 -41 q 292 139 292 -41 q 302 241 292 181 l 293 241 q 86 4 159 4 q 9 68 29 4 q -23 -187 -23 -82 q 10 -291 -23 -291 q -2 -311 10 -302 q -31 -320 -14 -320 z "},"":{"ha":776,"x_min":7,"x_max":816,"o":"m 229 -112 q 28 -20 79 -112 q 8 49 8 16 q 21 114 8 83 q 121 186 53 186 q 152 167 140 186 q 74 111 102 167 q 59 49 59 79 q 73 -9 59 19 q 229 -84 111 -84 q 378 -38 317 -84 q 469 81 439 9 q 521 248 499 153 q 553 429 543 342 q 584 603 563 517 q 633 737 604 690 q 509 767 554 767 q 330 658 401 767 q 271 471 271 570 q 344 330 271 359 q 388 322 364 322 q 363 306 384 306 q 207 400 252 306 q 184 496 184 447 q 202 596 184 546 q 348 762 242 711 q 483 792 409 792 q 648 757 558 792 q 656 766 650 760 q 761 903 692 903 q 780 890 776 903 l 782 886 q 691 794 724 886 q 751 808 716 808 q 812 773 802 808 q 814 759 814 766 q 792 721 814 737 q 743 706 770 706 q 672 721 716 706 q 641 438 657 640 q 611 144 626 236 q 490 -52 582 -52 q 474 -45 479 -52 q 472 -23 470 -38 q 571 147 541 -23 q 593 311 586 228 q 637 679 623 604 q 594 502 609 609 q 567 326 580 396 q 540 194 554 256 q 499 76 526 133 q 438 -22 472 19 q 350 -88 403 -63 q 229 -112 297 -112 m 751 784 q 679 752 708 784 l 678 743 q 740 730 714 730 q 788 754 781 730 q 789 761 789 758 q 769 782 789 776 q 751 784 761 784 z "},"":{"ha":336,"x_min":113,"x_max":191,"o":"m 137 267 q 113 311 113 267 q 127 368 113 338 q 168 398 141 398 q 191 372 191 398 q 151 287 191 346 l 137 267 z "},"":{"ha":282,"x_min":2,"x_max":213,"o":"m 49 -102 q 106 3 49 -78 l 130 3 l 79 -88 q 144 -73 108 -73 q 211 -116 200 -73 q 212 -132 212 -123 q 175 -198 212 -164 q 70 -232 138 -232 q 2 -189 2 -232 q 18 -164 2 -172 q 29 -162 22 -162 q 44 -176 40 -162 q 27 -192 29 -176 q 66 -218 24 -218 q 162 -169 132 -218 q 174 -134 174 -149 q 164 -107 174 -119 q 133 -94 153 -94 q 99 -98 113 -94 q 74 -107 84 -102 q 61 -112 64 -111 l 59 -112 q 49 -102 49 -112 z "},"":{"ha":271,"x_min":44,"x_max":238,"o":"m 229 859 q 238 851 238 859 q 190 713 210 831 q 170 530 170 594 q 160 523 170 523 q 139 564 139 523 q 154 728 139 651 q 196 839 170 806 q 117 780 152 822 q 81 697 81 738 q 101 673 81 673 q 83 657 101 657 q 54 669 64 657 q 44 700 44 682 q 107 806 44 753 q 229 859 170 859 z "},"":{"ha":346,"x_min":39,"x_max":322,"o":"m 123 503 q 39 619 39 503 q 71 743 39 681 q 169 823 111 823 q 186 818 180 823 q 193 804 192 813 q 122 738 152 804 q 91 602 91 672 q 133 532 91 532 q 208 613 171 532 q 244 786 244 694 l 244 794 q 212 827 224 808 q 199 855 199 846 q 207 872 199 864 q 226 880 214 880 q 249 858 238 880 q 266 807 261 836 q 299 796 284 796 q 322 801 314 796 q 300 777 322 777 q 268 781 281 777 q 223 593 266 682 q 123 503 181 503 z "},"":{"ha":642,"x_min":56,"x_max":556,"o":"m 552 251 q 554 241 554 247 q 546 229 554 236 l 292 68 l 292 103 l 490 256 l 366 438 l 366 477 q 552 251 508 311 m 316 251 q 319 241 319 247 q 310 229 319 236 l 56 68 l 56 103 l 254 256 l 130 438 l 130 477 q 316 251 272 311 z "},"":{"ha":1098,"x_min":60,"x_max":950,"o":"m 921 216 q 949 177 949 216 q 913 107 949 138 q 813 72 878 76 q 802 -53 802 1 q 790 -64 802 -64 q 759 3 759 -64 q 760 72 759 49 q 586 88 701 74 q 542 77 563 77 q 493 99 497 77 q 517 124 491 117 q 538 128 526 128 l 549 128 q 628 378 604 190 q 631 444 631 408 q 618 481 631 481 l 618 482 q 639 500 618 500 q 680 428 668 500 q 686 354 686 396 q 678 262 686 313 q 621 118 662 168 q 761 101 733 102 q 792 291 770 221 q 838 387 814 360 q 892 413 862 413 q 906 400 906 413 q 817 101 854 332 q 901 156 884 108 q 899 192 911 184 q 894 193 897 193 q 921 216 898 216 m 350 792 q 370 779 370 792 q 287 542 326 729 q 248 266 248 354 q 236 254 248 254 q 204 320 204 254 q 230 583 204 460 q 297 760 256 706 q 170 663 228 732 q 112 530 112 594 q 134 493 112 493 q 111 469 134 469 q 73 488 87 469 q 60 537 60 507 q 165 706 60 619 q 350 792 270 792 m 211 -99 q 198 -81 198 -99 q 225 -8 198 -63 q 412 398 252 48 q 585 776 571 748 q 619 804 599 804 q 639 776 639 804 q 620 706 639 744 q 511 491 601 668 q 229 -81 297 66 q 211 -99 220 -99 z "},"":{"ha":1029,"x_min":60,"x_max":880,"o":"m 628 378 q 607 319 607 344 q 624 293 607 294 q 614 267 624 279 q 589 256 604 256 q 554 293 554 256 q 617 417 554 354 q 759 479 679 479 q 880 377 880 479 q 846 275 880 332 q 760 166 811 218 q 559 0 651 54 q 643 -6 562 0 q 761 -11 724 -11 q 818 0 797 -11 q 844 22 839 11 l 850 33 q 862 7 866 33 q 816 -58 859 -36 q 743 -70 790 -70 q 613 -47 697 -70 q 506 -23 530 -23 q 501 -17 502 -23 q 501 -5 499 -11 q 507 1 503 1 q 602 71 529 1 q 741 237 674 141 q 808 388 808 332 q 738 447 808 447 q 628 378 669 447 m 350 792 q 370 779 370 792 q 287 542 326 729 q 248 266 248 354 q 236 254 248 254 q 204 320 204 254 q 230 583 204 460 q 297 760 256 706 q 170 663 228 732 q 112 530 112 594 q 134 493 112 493 q 111 469 134 469 q 73 488 87 469 q 60 537 60 507 q 165 706 60 619 q 350 792 270 792 m 211 -99 q 198 -81 198 -99 q 225 -8 198 -63 q 412 398 252 48 q 585 776 571 748 q 619 804 599 804 q 639 776 639 804 q 620 706 639 744 q 511 491 601 668 q 229 -81 297 66 q 211 -99 220 -99 z "},"":{"ha":1147,"x_min":1,"x_max":999,"o":"m 970 216 q 999 177 999 216 q 962 107 999 138 q 862 72 926 76 q 851 -53 851 -11 q 840 -64 851 -64 q 808 3 808 -64 q 809 72 808 49 q 634 88 754 74 q 587 77 614 77 q 547 89 559 77 q 548 115 536 102 q 588 128 561 128 l 598 128 q 678 378 654 187 q 681 444 681 408 q 668 481 681 481 l 668 484 q 688 500 668 500 q 730 428 718 500 q 736 355 736 396 q 727 262 736 314 q 670 118 711 168 q 811 101 781 102 q 853 323 821 232 q 941 413 884 413 q 956 400 956 413 q 867 101 904 332 q 951 156 933 108 q 948 192 961 184 q 943 193 946 193 q 970 216 948 216 m 247 557 q 353 420 353 527 q 298 289 353 351 q 121 214 230 214 q 31 236 61 214 q 1 272 1 257 q 26 311 1 297 l 33 316 q 54 265 33 290 q 121 240 74 240 q 256 318 208 240 q 283 411 283 364 q 278 456 283 433 q 158 539 253 539 q 182 564 160 564 q 265 616 219 564 q 311 719 311 668 q 254 762 311 762 q 168 714 197 762 q 158 686 158 697 q 163 670 158 674 q 174 666 168 666 q 142 627 170 627 q 106 667 106 627 q 154 751 106 708 q 272 793 203 793 q 373 732 361 793 q 376 712 376 722 q 336 621 376 666 q 247 557 296 577 m 260 -99 q 248 -81 248 -99 q 275 -7 248 -62 q 464 404 302 49 q 637 782 626 759 q 668 804 649 804 q 688 777 688 804 q 669 706 688 744 q 560 491 650 668 q 278 -81 346 66 q 260 -99 269 -99 z "},"":{"ha":547,"x_min":2,"x_max":430,"o":"m 331 -211 q 367 -122 367 -159 q 344 -86 367 -86 l 344 -80 q 366 -42 344 -54 q 386 -38 374 -38 q 429 -88 429 -38 q 364 -231 429 -156 q 158 -333 278 -333 q 42 -296 81 -333 q 2 -198 2 -258 q 39 -75 2 -138 q 129 40 77 -12 q 233 140 181 92 q 361 318 361 257 q 381 331 361 330 q 400 318 400 331 q 289 127 400 256 q 196 19 242 74 q 84 -211 84 -116 q 178 -298 84 -298 q 331 -211 271 -298 m 362 504 q 399 538 372 538 q 426 512 426 538 q 400 429 426 488 l 391 408 q 362 440 372 408 q 358 472 358 456 q 362 504 358 489 z "},"":{"ha":1174,"x_min":-1,"x_max":1211,"o":"m 1068 1117 q 1146 1033 1108 1079 q 1183 977 1183 988 q 1171 966 1183 966 q 1119 994 1159 966 q 1038 1066 1080 1023 q 1020 1092 1020 1081 q 1027 1114 1020 1103 q 1046 1126 1034 1126 q 1068 1117 1057 1126 m 410 -16 q 356 141 356 37 q 432 382 356 258 q 547 496 474 451 q 704 540 619 540 q 786 527 742 540 q 923 728 870 666 q 1016 822 977 790 q 1193 893 1103 893 q 1211 876 1211 893 q 1098 551 1138 714 q 1037 232 1059 387 q 1016 -31 1016 77 q 1000 -47 1016 -47 q 961 42 961 -47 q 940 246 961 154 q 804 474 901 419 q 758 386 792 451 q 708 289 724 320 q 661 204 692 259 q 607 116 629 149 q 491 -24 553 36 q 518 -28 502 -28 q 672 34 611 -28 q 757 180 733 96 q 774 191 760 192 q 781 182 783 190 q 688 15 757 87 q 517 -57 620 -57 q 464 -49 493 -57 q 247 -131 362 -131 q 33 -13 97 -131 q -1 123 -1 50 q 9 204 -1 162 q 118 368 36 319 q 208 392 159 392 q 233 383 223 392 q 248 353 243 373 q 130 307 182 353 q 42 89 42 230 q 94 -45 42 3 q 233 -93 146 -93 q 410 -16 320 -93 m 703 500 q 536 439 610 500 q 427 296 461 378 q 392 131 392 214 q 434 4 392 48 q 524 109 477 44 q 600 219 572 174 q 687 363 628 263 q 763 492 746 463 q 703 500 737 500 m 1136 850 q 973 740 1047 827 q 823 510 900 653 q 974 274 931 451 q 1039 622 994 463 q 1136 850 1084 780 z "},"":{"ha":1174,"x_min":-1,"x_max":1278,"o":"m 1270 1064 q 1196 987 1237 1024 q 1144 950 1154 950 q 1133 961 1133 950 q 1158 1012 1133 971 q 1219 1092 1183 1052 q 1246 1108 1234 1108 q 1267 1102 1257 1108 q 1278 1087 1278 1097 q 1270 1064 1278 1077 m 410 -16 q 356 141 356 37 q 432 382 356 258 q 547 496 474 451 q 704 540 619 540 q 786 527 742 540 q 923 728 870 666 q 1016 822 977 790 q 1193 893 1103 893 q 1211 876 1211 893 q 1098 551 1138 714 q 1037 232 1059 387 q 1016 -31 1016 77 q 1000 -47 1016 -47 q 961 42 961 -47 q 940 246 961 154 q 804 474 901 419 q 758 386 792 451 q 708 289 724 320 q 661 204 692 259 q 607 116 629 149 q 491 -24 553 36 q 518 -28 502 -28 q 672 34 611 -28 q 757 180 733 96 q 774 191 760 192 q 781 182 783 190 q 688 15 757 87 q 517 -57 620 -57 q 464 -49 493 -57 q 247 -131 362 -131 q 33 -13 97 -131 q -1 123 -1 50 q 9 204 -1 162 q 118 368 36 319 q 208 392 159 392 q 233 383 223 392 q 248 353 243 373 q 130 307 182 353 q 42 89 42 230 q 94 -45 42 3 q 233 -93 146 -93 q 410 -16 320 -93 m 703 500 q 536 439 610 500 q 427 296 461 378 q 392 131 392 214 q 434 4 392 48 q 524 109 477 44 q 600 219 572 174 q 687 363 628 263 q 763 492 746 463 q 703 500 737 500 m 1136 850 q 973 740 1047 827 q 823 510 900 653 q 974 274 931 451 q 1039 622 994 463 q 1136 850 1084 780 z "},"":{"ha":1174,"x_min":-1,"x_max":1257,"o":"m 1158 1074 q 1178 1083 1169 1083 q 1191 1074 1187 1083 l 1257 943 l 1226 943 l 1174 1029 l 1030 943 l 998 943 q 1158 1074 1104 1032 m 410 -16 q 356 141 356 37 q 432 382 356 258 q 547 496 474 451 q 704 540 619 540 q 786 527 742 540 q 923 728 870 666 q 1016 822 977 790 q 1193 893 1103 893 q 1211 876 1211 893 q 1098 551 1138 714 q 1037 232 1059 387 q 1016 -31 1016 77 q 1000 -47 1016 -47 q 961 42 961 -47 q 940 246 961 154 q 804 474 901 419 q 758 386 792 451 q 708 289 724 320 q 661 204 692 259 q 607 116 629 149 q 491 -24 553 36 q 518 -28 502 -28 q 672 34 611 -28 q 757 180 733 96 q 774 191 760 192 q 781 182 783 190 q 688 15 757 87 q 517 -57 620 -57 q 464 -49 493 -57 q 247 -131 362 -131 q 33 -13 97 -131 q -1 123 -1 50 q 9 204 -1 162 q 118 368 36 319 q 208 392 159 392 q 233 383 223 392 q 248 353 243 373 q 130 307 182 353 q 42 89 42 230 q 94 -45 42 3 q 233 -93 146 -93 q 410 -16 320 -93 m 703 500 q 536 439 610 500 q 427 296 461 378 q 392 131 392 214 q 434 4 392 48 q 524 109 477 44 q 600 219 572 174 q 687 363 628 263 q 763 492 746 463 q 703 500 737 500 m 1136 850 q 973 740 1047 827 q 823 510 900 653 q 974 274 931 451 q 1039 622 994 463 q 1136 850 1084 780 z "},"":{"ha":1174,"x_min":-1,"x_max":1283,"o":"m 1073 1010 q 1020 964 1046 1010 l 984 964 q 1014 1012 993 992 q 1097 1051 1056 1051 q 1147 1025 1117 1051 q 1203 999 1178 999 q 1250 1039 1228 999 l 1283 1039 q 1278 1029 1281 1036 q 1265 1008 1276 1023 q 1242 982 1254 993 q 1183 951 1212 951 q 1122 981 1154 951 q 1073 1010 1089 1010 m 410 -16 q 356 141 356 37 q 432 382 356 258 q 547 496 474 451 q 704 540 619 540 q 786 527 742 540 q 923 728 870 666 q 1016 822 977 790 q 1193 893 1103 893 q 1211 876 1211 893 q 1098 551 1138 714 q 1037 232 1059 387 q 1016 -31 1016 77 q 1000 -47 1016 -47 q 961 42 961 -47 q 940 246 961 154 q 804 474 901 419 q 758 386 792 451 q 708 289 724 320 q 661 204 692 259 q 607 116 629 149 q 491 -24 553 36 q 518 -28 502 -28 q 672 34 611 -28 q 757 180 733 96 q 774 191 760 192 q 781 182 783 190 q 688 15 757 87 q 517 -57 620 -57 q 464 -49 493 -57 q 247 -131 362 -131 q 33 -13 97 -131 q -1 123 -1 50 q 9 204 -1 162 q 118 368 36 319 q 208 392 159 392 q 233 383 223 392 q 248 353 243 373 q 130 307 182 353 q 42 89 42 230 q 94 -45 42 3 q 233 -93 146 -93 q 410 -16 320 -93 m 703 500 q 536 439 610 500 q 427 296 461 378 q 392 131 392 214 q 434 4 392 48 q 524 109 477 44 q 600 219 572 174 q 687 363 628 263 q 763 492 746 463 q 703 500 737 500 m 1136 850 q 973 740 1047 827 q 823 510 900 653 q 974 274 931 451 q 1039 622 994 463 q 1136 850 1084 780 z "},"":{"ha":1174,"x_min":-1,"x_max":1290,"o":"m 1077 951 q 1053 996 1053 951 q 1068 1052 1053 1022 q 1109 1082 1082 1082 q 1131 1057 1131 1082 q 1091 971 1131 1030 l 1077 951 m 1236 951 q 1212 997 1212 951 q 1226 1053 1212 1023 q 1267 1082 1240 1082 q 1290 1057 1290 1082 q 1249 971 1290 1033 l 1236 951 m 410 -16 q 356 141 356 37 q 432 382 356 258 q 547 496 474 451 q 704 540 619 540 q 786 527 742 540 q 923 728 870 666 q 1016 822 977 790 q 1193 893 1103 893 q 1211 876 1211 893 q 1098 551 1138 714 q 1037 232 1059 387 q 1016 -31 1016 77 q 1000 -47 1016 -47 q 961 42 961 -47 q 940 246 961 154 q 804 474 901 419 q 758 386 792 451 q 708 289 724 320 q 661 204 692 259 q 607 116 629 149 q 491 -24 553 36 q 518 -28 502 -28 q 672 34 611 -28 q 757 180 733 96 q 774 191 760 192 q 781 182 783 190 q 688 15 757 87 q 517 -57 620 -57 q 464 -49 493 -57 q 247 -131 362 -131 q 33 -13 97 -131 q -1 123 -1 50 q 9 204 -1 162 q 118 368 36 319 q 208 392 159 392 q 233 383 223 392 q 248 353 243 373 q 130 307 182 353 q 42 89 42 230 q 94 -45 42 3 q 233 -93 146 -93 q 410 -16 320 -93 m 703 500 q 536 439 610 500 q 427 296 461 378 q 392 131 392 214 q 434 4 392 48 q 524 109 477 44 q 600 219 572 174 q 687 363 628 263 q 763 492 746 463 q 703 500 737 500 m 1136 850 q 973 740 1047 827 q 823 510 900 653 q 974 274 931 451 q 1039 622 994 463 q 1136 850 1084 780 z "},"":{"ha":1174,"x_min":-1,"x_max":1226,"o":"m 1066 1035 q 1066 1051 1066 1035 q 1088 1091 1066 1068 q 1145 1114 1111 1114 q 1202 1091 1179 1114 q 1226 1034 1226 1068 q 1202 978 1226 1001 q 1145 954 1179 954 q 1088 978 1111 954 q 1066 1035 1066 1002 m 1111 1003 q 1118 997 1111 1003 q 1143 990 1124 990 q 1176 1003 1162 990 q 1190 1036 1190 1017 q 1176 1068 1190 1054 q 1143 1081 1162 1081 q 1111 1068 1124 1081 q 1098 1036 1098 1054 q 1111 1003 1098 1017 m 410 -16 q 356 141 356 37 q 432 382 356 258 q 547 496 474 451 q 704 540 619 540 q 786 527 742 540 q 923 728 870 666 q 1016 822 977 790 q 1193 893 1103 893 q 1211 876 1211 893 q 1098 551 1138 714 q 1037 232 1059 387 q 1016 -31 1016 77 q 1000 -47 1016 -47 q 961 42 961 -47 q 940 246 961 154 q 804 474 901 419 q 758 386 792 451 q 708 289 724 320 q 661 204 692 259 q 607 116 629 149 q 491 -24 553 36 q 518 -28 502 -28 q 672 34 611 -28 q 757 180 733 96 q 774 191 760 192 q 781 182 783 190 q 688 15 757 87 q 517 -57 620 -57 q 464 -49 493 -57 q 247 -131 362 -131 q 33 -13 97 -131 q -1 123 -1 50 q 9 204 -1 162 q 118 368 36 319 q 208 392 159 392 q 233 383 223 392 q 248 353 243 373 q 130 307 182 353 q 42 89 42 230 q 94 -45 42 3 q 233 -93 146 -93 q 410 -16 320 -93 m 703 500 q 536 439 610 500 q 427 296 461 378 q 392 131 392 214 q 434 4 392 48 q 524 109 477 44 q 600 219 572 174 q 687 363 628 263 q 763 492 746 463 q 703 500 737 500 m 1136 850 q 973 740 1047 827 q 823 510 900 653 q 974 274 931 451 q 1039 622 994 463 q 1136 850 1084 780 z "},"":{"ha":1621,"x_min":-1,"x_max":1648,"o":"m 918 89 l 920 161 q 804 472 920 398 q 687 251 707 287 q 631 154 668 216 q 491 -24 566 48 q 518 -28 514 -28 q 672 34 611 -28 q 757 180 733 96 q 774 191 760 192 q 781 182 783 190 q 688 15 757 87 q 517 -57 620 -57 q 464 -49 493 -57 q 247 -131 362 -131 q 33 -13 97 -131 q -1 123 -1 50 q 9 204 -1 162 q 118 368 36 319 q 208 392 159 392 q 233 383 223 392 q 248 353 243 373 q 130 307 182 353 q 42 89 42 230 q 94 -45 42 3 q 233 -93 146 -93 q 410 -16 320 -93 q 356 141 356 37 q 432 382 356 258 q 547 496 474 451 q 704 540 619 540 q 784 527 742 540 q 973 782 882 687 q 1193 893 1077 893 q 1196 884 1196 893 q 1194 858 1196 876 q 986 753 1079 858 q 903 646 939 701 q 822 509 867 590 q 950 234 931 443 q 1086 421 994 340 q 1299 529 1177 502 q 1210 640 1210 561 q 1283 784 1210 719 q 1488 860 1368 860 q 1519 844 1509 860 q 1529 813 1529 829 l 1528 799 q 1489 803 1519 803 q 1319 732 1389 803 q 1271 634 1271 682 q 1410 541 1271 541 q 1431 534 1422 541 q 1443 512 1439 527 q 1122 364 1252 512 q 1000 59 1000 227 q 1056 -90 1000 -38 q 1169 -132 1099 -132 q 1411 1 1327 -132 q 1467 183 1467 88 q 1414 307 1467 288 q 1396 310 1406 310 q 1449 336 1410 336 q 1520 263 1503 336 q 1526 208 1526 237 q 1492 59 1526 140 q 1311 -138 1432 -81 q 1168 -169 1244 -169 q 976 -93 1033 -169 q 918 89 918 -18 m 703 500 q 536 439 610 500 q 427 296 461 378 q 392 131 392 214 q 434 4 392 48 q 600 218 504 71 q 763 491 646 290 q 703 500 740 500 m 1567 609 q 1557 603 1567 603 q 1528 620 1528 603 q 1553 803 1528 733 q 1621 872 1579 872 q 1639 864 1631 872 q 1648 843 1648 856 q 1576 694 1597 792 q 1567 609 1567 653 z "},"":{"ha":672,"x_min":66,"x_max":724,"o":"m 577 807 q 302 628 423 807 q 166 268 198 473 q 154 143 154 200 q 194 -32 154 34 q 307 -98 234 -98 q 473 14 404 -98 q 520 148 520 90 q 507 173 520 173 q 540 199 513 199 q 571 154 571 199 q 498 -23 571 71 q 292 -136 410 -136 q 248 -130 272 -136 l 206 -207 q 271 -192 234 -192 q 338 -234 327 -192 q 339 -251 339 -242 q 302 -317 339 -283 q 201 -351 264 -351 q 130 -317 137 -351 q 144 -283 126 -293 q 156 -281 149 -281 q 171 -294 167 -281 q 153 -311 156 -294 q 192 -337 151 -337 q 289 -288 258 -337 q 301 -252 301 -268 q 291 -224 301 -237 q 260 -212 280 -212 q 226 -216 240 -212 q 201 -225 211 -220 q 188 -231 191 -230 l 186 -231 q 174 -222 174 -231 q 188 -186 174 -212 q 226 -126 201 -159 q 91 14 130 -97 q 67 147 67 82 q 162 541 67 328 q 334 768 222 677 q 574 860 447 860 q 607 846 597 860 q 616 818 617 831 l 616 803 q 577 807 607 807 m 643 571 q 630 566 643 566 l 616 569 q 606 581 606 573 q 631 764 606 694 q 698 833 657 833 q 717 826 709 833 q 724 804 724 818 q 652 656 673 753 q 643 571 643 616 z "},"":{"ha":702,"x_min":-4,"x_max":729,"o":"m 503 1078 q 582 994 544 1040 q 619 938 619 948 q 607 928 619 928 q 555 957 596 928 q 472 1027 514 986 q 457 1054 457 1042 q 463 1077 457 1066 q 481 1089 470 1089 q 503 1078 492 1089 m 530 336 q 601 263 584 336 q 608 208 608 237 q 573 59 608 140 q 392 -138 513 -81 q 249 -169 326 -169 q 24 -49 84 -169 q -3 70 -3 7 q 20 202 -3 133 q 202 449 71 353 q 381 529 283 507 q 292 640 292 561 q 371 789 292 719 q 570 860 450 860 q 600 844 590 860 q 609 813 610 829 l 609 799 q 571 803 600 803 q 401 732 470 803 q 352 633 352 682 q 491 541 352 541 q 512 534 503 541 q 526 512 520 527 q 203 364 333 512 q 81 58 81 227 q 137 -90 81 -38 q 250 -132 180 -132 q 492 1 408 -132 q 548 183 548 88 q 496 307 548 288 q 477 310 487 310 q 530 336 491 336 m 648 609 q 638 603 648 603 q 618 608 628 603 q 609 620 609 612 q 634 803 609 733 q 702 872 660 872 q 721 864 713 872 q 729 843 729 856 q 657 694 678 792 q 648 609 648 653 z "},"":{"ha":702,"x_min":-4,"x_max":729,"o":"m 689 1028 q 617 951 658 989 q 564 913 576 913 q 553 922 553 913 q 578 976 553 936 q 639 1056 603 1016 q 664 1071 652 1071 q 686 1066 676 1071 q 697 1050 697 1060 q 689 1028 697 1040 m 530 336 q 601 263 584 336 q 608 208 608 237 q 573 59 608 140 q 392 -138 513 -81 q 249 -169 326 -169 q 24 -49 84 -169 q -3 70 -3 7 q 20 202 -3 133 q 202 449 71 353 q 381 529 283 507 q 292 640 292 561 q 371 789 292 719 q 570 860 450 860 q 600 844 590 860 q 609 813 610 829 l 609 799 q 571 803 600 803 q 401 732 470 803 q 352 633 352 682 q 491 541 352 541 q 512 534 503 541 q 526 512 520 527 q 203 364 333 512 q 81 58 81 227 q 137 -90 81 -38 q 250 -132 180 -132 q 492 1 408 -132 q 548 183 548 88 q 496 307 548 288 q 477 310 487 310 q 530 336 491 336 m 648 609 q 638 603 648 603 q 618 608 628 603 q 609 620 609 612 q 634 803 609 733 q 702 872 660 872 q 721 864 713 872 q 729 843 729 856 q 657 694 678 792 q 648 609 648 653 z "},"":{"ha":702,"x_min":-4,"x_max":729,"o":"m 574 1047 q 594 1056 587 1056 q 607 1047 602 1056 l 673 916 l 642 916 l 591 1001 l 447 916 l 414 916 q 574 1047 521 1004 m 530 336 q 601 263 584 336 q 608 208 608 237 q 573 59 608 140 q 392 -138 513 -81 q 249 -169 326 -169 q 24 -49 84 -169 q -3 70 -3 7 q 20 202 -3 133 q 202 449 71 353 q 381 529 283 507 q 292 640 292 561 q 371 789 292 719 q 570 860 450 860 q 600 844 590 860 q 609 813 610 829 l 609 799 q 571 803 600 803 q 401 732 470 803 q 352 633 352 682 q 491 541 352 541 q 512 534 503 541 q 526 512 520 527 q 203 364 333 512 q 81 58 81 227 q 137 -90 81 -38 q 250 -132 180 -132 q 492 1 408 -132 q 548 183 548 88 q 496 307 548 288 q 477 310 487 310 q 530 336 491 336 m 648 609 q 638 603 648 603 q 618 608 628 603 q 609 620 609 612 q 634 803 609 733 q 702 872 660 872 q 721 864 713 872 q 729 843 729 856 q 657 694 678 792 q 648 609 648 653 z "},"":{"ha":702,"x_min":-4,"x_max":729,"o":"m 459 910 q 436 954 436 910 q 449 1011 436 981 q 490 1040 463 1040 q 513 1014 513 1040 q 500 975 513 1001 q 473 929 487 949 l 459 910 m 617 910 q 593 954 593 910 q 608 1011 593 981 q 649 1040 622 1040 q 671 1014 671 1040 q 658 975 671 1001 q 631 929 644 949 l 617 910 m 530 336 q 601 263 584 336 q 608 208 608 237 q 573 59 608 140 q 392 -138 513 -81 q 249 -169 326 -169 q 24 -49 84 -169 q -3 70 -3 7 q 20 202 -3 133 q 202 449 71 353 q 381 529 283 507 q 292 640 292 561 q 371 789 292 719 q 570 860 450 860 q 600 844 590 860 q 609 813 610 829 l 609 799 q 571 803 600 803 q 401 732 470 803 q 352 633 352 682 q 491 541 352 541 q 512 534 503 541 q 526 512 520 527 q 203 364 333 512 q 81 58 81 227 q 137 -90 81 -38 q 250 -132 180 -132 q 492 1 408 -132 q 548 183 548 88 q 496 307 548 288 q 477 310 487 310 q 530 336 491 336 m 648 609 q 638 603 648 603 q 618 608 628 603 q 609 620 609 612 q 634 803 609 733 q 702 872 660 872 q 721 864 713 872 q 729 843 729 856 q 657 694 678 792 q 648 609 648 653 z "},"":{"ha":652,"x_min":7,"x_max":677,"o":"m 524 1048 q 603 965 566 1010 q 640 909 640 920 q 627 898 640 898 q 576 926 614 898 q 493 997 537 954 q 477 1024 477 1012 q 483 1047 477 1036 q 501 1058 490 1058 q 524 1048 512 1058 m 654 847 q 676 833 672 847 l 677 829 q 622 788 644 829 q 588 679 599 747 q 563 526 577 612 q 538 350 550 440 q 501 174 527 260 q 442 21 476 88 q 348 -88 408 -47 q 206 -129 288 -129 q 71 -80 123 -129 q 10 39 18 -31 q 8 97 8 62 q 21 191 8 132 q 82 298 33 249 q 192 347 130 347 q 218 337 209 347 q 231 307 228 327 q 73 208 131 307 q 37 79 37 143 q 48 9 37 44 q 193 -90 79 -90 q 303 -49 256 -90 q 379 59 350 -9 q 429 212 408 128 q 466 387 450 296 q 496 559 481 478 q 586 812 532 752 q 428 717 499 782 q 358 576 358 652 q 381 541 358 541 q 358 526 379 526 q 322 542 338 526 q 306 590 306 559 q 371 717 306 656 q 516 813 436 779 q 654 847 597 847 z "},"":{"ha":652,"x_min":7,"x_max":697,"o":"m 689 996 q 617 919 658 957 q 564 882 576 882 q 553 891 553 882 q 579 945 553 904 q 628 1013 604 986 q 664 1040 652 1040 q 697 1018 697 1040 q 689 996 697 1008 m 654 847 q 676 833 672 847 l 677 829 q 622 788 644 829 q 588 679 599 747 q 563 526 577 612 q 538 350 550 440 q 501 174 527 260 q 442 21 476 88 q 348 -88 408 -47 q 206 -129 288 -129 q 71 -80 123 -129 q 10 39 18 -31 q 8 97 8 62 q 21 191 8 132 q 82 298 33 249 q 192 347 130 347 q 218 337 209 347 q 231 307 228 327 q 73 208 131 307 q 37 79 37 143 q 48 9 37 44 q 193 -90 79 -90 q 303 -49 256 -90 q 379 59 350 -9 q 429 212 408 128 q 466 387 450 296 q 496 559 481 478 q 586 812 532 752 q 428 717 499 782 q 358 576 358 652 q 381 541 358 541 q 358 526 379 526 q 322 542 338 526 q 306 590 306 559 q 371 717 306 656 q 516 813 436 779 q 654 847 597 847 z "},"":{"ha":652,"x_min":7,"x_max":706,"o":"m 607 1016 q 625 1024 616 1024 q 639 1016 634 1024 l 706 886 l 673 886 l 623 970 l 479 886 l 446 886 q 607 1016 553 974 m 654 847 q 676 833 672 847 l 677 829 q 622 788 644 829 q 588 679 599 747 q 563 526 577 612 q 538 350 550 440 q 501 174 527 260 q 442 21 476 88 q 348 -88 408 -47 q 206 -129 288 -129 q 71 -80 123 -129 q 10 39 18 -31 q 8 97 8 62 q 21 191 8 132 q 82 298 33 249 q 192 347 130 347 q 218 337 209 347 q 231 307 228 327 q 73 208 131 307 q 37 79 37 143 q 48 9 37 44 q 193 -90 79 -90 q 303 -49 256 -90 q 379 59 350 -9 q 429 212 408 128 q 466 387 450 296 q 496 559 481 478 q 586 812 532 752 q 428 717 499 782 q 358 576 358 652 q 381 541 358 541 q 358 526 379 526 q 322 542 338 526 q 306 590 306 559 q 371 717 306 656 q 516 813 436 779 q 654 847 597 847 z "},"":{"ha":652,"x_min":7,"x_max":713,"o":"m 500 904 q 477 949 477 904 q 491 1006 477 976 q 532 1036 506 1036 q 554 1010 554 1036 q 513 924 554 987 l 500 904 m 659 904 q 636 949 636 904 q 649 1006 636 976 q 690 1036 663 1036 q 713 1010 713 1036 q 673 924 713 983 l 659 904 m 654 847 q 676 833 672 847 l 677 829 q 622 788 644 829 q 588 679 599 747 q 563 526 577 612 q 538 350 550 440 q 501 174 527 260 q 442 21 476 88 q 348 -88 408 -47 q 206 -129 288 -129 q 71 -80 123 -129 q 10 39 18 -31 q 8 97 8 62 q 21 191 8 132 q 82 298 33 249 q 192 347 130 347 q 218 337 209 347 q 231 307 228 327 q 73 208 131 307 q 37 79 37 143 q 48 9 37 44 q 193 -90 79 -90 q 303 -49 256 -90 q 379 59 350 -9 q 429 212 408 128 q 466 387 450 296 q 496 559 481 478 q 586 812 532 752 q 428 717 499 782 q 358 576 358 652 q 381 541 358 541 q 358 526 379 526 q 322 542 338 526 q 306 590 306 559 q 371 717 306 656 q 516 813 436 779 q 654 847 597 847 z "},"":{"ha":833,"x_min":8,"x_max":756,"o":"m 49 531 q 8 589 8 531 q 68 718 8 647 q 346 857 168 838 l 407 860 q 700 699 609 860 q 754 471 754 600 q 746 359 754 418 q 592 23 713 161 q 282 -129 459 -129 q 57 -30 104 -129 q 42 36 42 1 q 61 110 42 71 q 161 181 98 181 q 168 175 167 181 q 167 162 170 169 q 159 156 164 156 q 93 107 121 156 q 76 43 76 72 q 87 -10 76 14 q 257 -86 122 -86 q 532 70 409 -86 q 676 399 643 210 q 687 514 687 460 q 632 719 687 636 q 406 831 560 831 q 116 701 212 831 q 67 577 67 634 q 77 553 67 553 q 49 531 70 531 m 454 416 q 310 410 451 416 q 258 36 258 152 q 242 21 258 21 q 209 110 209 21 q 232 407 209 260 q 143 404 161 404 q 107 427 111 404 q 120 447 108 443 q 143 440 124 440 l 238 440 q 311 687 266 591 q 398 783 356 783 q 416 766 416 783 q 317 441 362 654 q 468 442 376 442 q 477 433 477 442 q 454 416 477 416 z "},"":{"ha":770,"x_min":0,"x_max":770,"o":"m 442 968 q 389 922 414 968 l 354 922 q 384 971 363 950 q 466 1010 423 1010 q 516 984 486 1010 q 564 958 547 958 q 595 967 582 958 q 619 997 608 977 l 652 997 q 607 937 638 964 q 549 910 576 910 q 491 939 523 910 q 442 968 458 968 m 587 29 q 656 -126 587 -126 q 731 -60 698 -126 q 750 -53 737 -49 q 753 -63 757 -56 q 744 -81 750 -70 q 725 -113 739 -91 q 691 -148 711 -134 q 648 -162 670 -162 q 513 50 513 -162 q 657 731 513 269 l 674 788 q 669 797 677 797 q 656 791 662 797 q 523 631 593 737 q 393 407 452 524 q 236 71 284 191 q 154 -50 187 -50 q 131 -26 131 -50 l 131 -23 q 182 142 144 7 q 258 564 249 379 q 259 589 259 578 q 233 714 259 661 q 143 768 208 768 q 51 709 79 768 q 42 677 42 690 q 50 663 42 663 q 24 648 48 648 q 1 678 1 648 q 47 759 1 723 q 161 794 93 794 q 322 501 322 794 q 311 372 322 438 l 321 372 q 720 862 579 862 q 770 807 770 862 q 693 573 736 721 q 587 29 587 209 z "},"":{"ha":760,"x_min":76,"x_max":686,"o":"m 462 1069 q 541 984 503 1029 q 578 929 578 939 q 566 919 578 919 q 514 947 553 919 q 431 1018 474 976 q 414 1045 414 1033 q 421 1068 414 1057 q 439 1079 428 1079 q 462 1069 450 1079 m 627 520 q 534 723 627 723 q 542 738 534 731 q 578 750 557 750 q 676 634 652 750 q 686 536 686 588 q 651 316 686 437 q 477 6 593 108 q 304 -64 397 -64 q 101 88 154 -64 q 76 246 76 159 q 100 433 76 332 q 263 756 150 634 q 473 860 361 860 q 521 846 504 860 q 538 818 538 832 l 539 804 q 498 809 528 809 q 285 656 378 809 q 171 310 192 502 q 166 220 166 261 q 216 26 166 93 q 320 -27 256 -27 q 541 157 454 -27 q 627 520 627 341 z "},"":{"ha":760,"x_min":76,"x_max":686,"o":"m 639 1031 q 566 954 606 991 q 514 918 526 918 q 503 929 503 918 q 529 981 503 940 q 578 1048 554 1021 q 614 1076 602 1076 q 636 1071 626 1076 q 646 1055 646 1066 q 639 1031 646 1044 m 627 520 q 534 723 627 723 q 542 738 534 731 q 578 750 557 750 q 676 634 652 750 q 686 536 686 588 q 651 316 686 437 q 477 6 593 108 q 304 -64 397 -64 q 101 88 154 -64 q 76 246 76 159 q 100 433 76 332 q 263 756 150 634 q 473 860 361 860 q 521 846 504 860 q 538 818 538 832 l 539 804 q 498 809 528 809 q 285 656 378 809 q 171 310 192 502 q 166 220 166 261 q 216 26 166 93 q 320 -27 256 -27 q 541 157 454 -27 q 627 520 627 341 z "},"":{"ha":760,"x_min":76,"x_max":686,"o":"m 558 1041 q 577 1049 568 1049 q 590 1041 587 1049 l 657 911 l 624 911 l 574 996 l 430 911 l 398 911 q 558 1041 504 1000 m 627 520 q 534 723 627 723 q 542 738 534 731 q 578 750 557 750 q 676 634 652 750 q 686 536 686 588 q 651 316 686 437 q 477 6 593 108 q 304 -64 397 -64 q 101 88 154 -64 q 76 246 76 159 q 100 433 76 332 q 263 756 150 634 q 473 860 361 860 q 521 846 504 860 q 538 818 538 832 l 539 804 q 498 809 528 809 q 285 656 378 809 q 171 310 192 502 q 166 220 166 261 q 216 26 166 93 q 320 -27 256 -27 q 541 157 454 -27 q 627 520 627 341 z "},"":{"ha":760,"x_min":76,"x_max":688,"o":"m 499 1021 q 509 1021 499 1021 q 551 995 520 1021 q 607 969 582 969 q 653 1009 631 969 l 688 1009 q 683 999 686 1006 q 669 978 680 993 q 647 951 658 963 q 587 921 616 921 q 525 951 558 921 q 478 980 492 980 q 450 969 463 980 q 423 934 437 958 l 389 934 q 458 1011 407 987 q 499 1021 478 1021 m 627 520 q 534 723 627 723 q 542 738 534 731 q 578 750 557 750 q 676 634 652 750 q 686 536 686 588 q 651 316 686 437 q 477 6 593 108 q 304 -64 397 -64 q 101 88 154 -64 q 76 246 76 159 q 100 433 76 332 q 263 756 150 634 q 473 860 361 860 q 521 846 504 860 q 538 818 538 832 l 539 804 q 498 809 528 809 q 285 656 378 809 q 171 310 192 502 q 166 220 166 261 q 216 26 166 93 q 320 -27 256 -27 q 541 157 454 -27 q 627 520 627 341 z "},"":{"ha":760,"x_min":76,"x_max":686,"o":"m 471 907 q 448 951 448 907 q 462 1008 448 978 q 502 1038 476 1038 q 526 1011 526 1038 q 484 927 526 989 l 471 907 m 629 907 q 606 951 606 907 q 620 1008 606 978 q 661 1038 634 1038 q 683 1011 683 1038 q 642 927 683 989 l 629 907 m 627 520 q 534 723 627 723 q 542 738 534 731 q 578 750 557 750 q 676 634 652 750 q 686 536 686 588 q 651 316 686 437 q 477 6 593 108 q 304 -64 397 -64 q 101 88 154 -64 q 76 246 76 159 q 100 433 76 332 q 263 756 150 634 q 473 860 361 860 q 521 846 504 860 q 538 818 538 832 l 539 804 q 498 809 528 809 q 285 656 378 809 q 171 310 192 502 q 166 220 166 261 q 216 26 166 93 q 320 -27 256 -27 q 541 157 454 -27 q 627 520 627 341 z "},"":{"ha":652,"x_min":54,"x_max":503,"o":"m 72 7 q 60 0 66 0 q 54 13 54 0 q 74 49 54 27 q 267 280 93 72 q 219 361 249 310 q 167 450 189 412 q 132 509 144 488 q 138 533 117 533 q 188 492 161 533 q 289 306 196 478 q 480 533 386 424 q 492 540 487 540 q 500 534 497 540 q 503 521 503 528 q 470 461 503 501 q 306 274 437 420 q 420 64 370 151 q 418 49 430 49 q 379 87 401 49 q 283 249 334 169 q 72 7 117 61 z "},"":{"ha":760,"x_min":76,"x_max":688,"o":"m 583 749 q 688 534 688 742 q 592 160 688 353 q 346 -60 497 -33 q 318 -152 333 -100 q 299 -212 302 -204 q 291 -220 297 -220 q 280 -216 288 -220 q 272 -200 272 -212 q 276 -178 272 -188 q 309 -64 299 -99 l 304 -64 q 101 88 154 -64 q 76 246 76 159 q 100 433 76 332 q 263 756 150 634 q 473 860 361 860 q 521 846 504 860 q 538 818 538 832 l 539 804 q 498 809 528 809 q 285 655 378 809 q 170 309 192 501 q 164 220 164 261 q 216 26 164 93 q 319 -27 254 -26 q 599 972 580 897 q 611 983 602 983 q 619 981 614 983 q 638 951 638 974 q 616 860 638 936 q 583 749 593 784 m 482 64 q 511 100 482 64 q 571 231 540 136 q 613 402 602 327 q 624 522 624 478 q 571 710 624 668 q 356 -22 463 337 q 482 64 424 -7 z "},"":{"ha":852,"x_min":39,"x_max":826,"o":"m 573 929 q 651 846 613 891 q 689 789 689 800 q 677 778 689 778 q 626 806 664 778 q 556 863 587 834 q 526 904 526 892 q 533 927 526 916 q 551 938 540 938 q 573 929 562 938 m 679 40 q 738 -126 679 -126 q 801 -60 769 -126 q 816 -52 807 -49 q 824 -58 824 -54 q 813 -87 824 -62 q 778 -137 802 -111 q 730 -162 754 -162 q 614 68 614 -162 q 636 322 614 188 l 624 322 q 362 0 454 0 q 250 133 250 0 q 283 295 250 187 q 349 519 316 403 q 382 698 382 634 q 273 831 382 831 q 122 716 172 831 q 89 560 89 638 q 97 484 89 522 q 200 369 121 369 q 179 353 192 353 q 49 480 79 353 q 39 560 39 520 q 82 732 39 646 q 272 859 147 859 q 413 805 369 859 q 457 665 457 751 q 394 373 457 579 q 332 103 332 167 q 376 39 332 39 q 482 148 411 39 q 687 540 599 329 q 759 623 721 623 q 783 598 783 623 q 707 324 736 484 q 679 40 679 163 z "},"":{"ha":852,"x_min":39,"x_max":826,"o":"m 757 892 q 682 815 723 852 q 631 778 641 778 q 620 788 620 778 q 645 839 620 799 q 706 920 670 880 q 732 937 720 937 q 751 931 743 937 q 764 914 764 924 q 757 892 764 904 m 707 324 q 693 244 707 324 q 679 40 679 163 q 738 -126 679 -126 q 801 -60 769 -126 q 816 -52 807 -49 q 824 -58 824 -54 q 813 -87 824 -62 q 778 -137 802 -111 q 730 -162 754 -162 q 614 68 614 -162 q 636 322 614 188 l 624 322 q 362 0 454 0 q 250 133 250 0 q 283 295 250 187 q 349 519 316 403 q 382 698 382 634 q 273 831 382 831 q 122 716 172 831 q 89 560 89 638 q 97 484 89 522 q 200 369 121 369 q 179 353 192 353 q 49 480 79 353 q 39 560 39 520 q 82 732 39 646 q 272 859 147 859 q 413 805 369 859 q 457 665 457 751 q 394 373 457 579 q 332 103 332 167 q 376 39 332 39 q 482 148 411 39 q 687 540 599 329 q 759 623 721 623 q 783 598 783 623 q 707 324 736 484 z "},"":{"ha":852,"x_min":39,"x_max":826,"o":"m 664 954 q 684 962 674 962 q 697 954 693 962 l 763 823 l 732 823 l 681 909 l 537 823 l 504 823 q 664 954 611 912 m 679 40 q 738 -126 679 -126 q 801 -60 769 -126 q 816 -52 807 -49 q 824 -58 824 -54 q 813 -87 824 -62 q 778 -137 802 -111 q 730 -162 754 -162 q 614 68 614 -162 q 636 322 614 188 l 624 322 q 362 0 454 0 q 250 133 250 0 q 283 295 250 187 q 349 519 316 403 q 382 698 382 634 q 273 831 382 831 q 122 716 172 831 q 89 560 89 638 q 97 484 89 522 q 200 369 121 369 q 179 353 192 353 q 49 480 79 353 q 39 560 39 520 q 82 732 39 646 q 272 859 147 859 q 413 805 369 859 q 457 665 457 751 q 394 373 457 579 q 332 103 332 167 q 376 39 332 39 q 482 148 411 39 q 687 540 599 329 q 759 623 721 623 q 783 598 783 623 q 707 324 736 484 q 679 40 679 163 z "},"":{"ha":852,"x_min":39,"x_max":826,"o":"m 542 791 q 519 836 519 791 q 533 891 519 861 q 573 921 547 921 q 597 896 597 921 q 556 811 597 873 l 542 791 m 700 791 q 677 834 677 791 q 691 891 677 861 q 732 921 706 921 q 754 896 754 921 q 713 811 754 873 l 700 791 m 679 40 q 738 -126 679 -126 q 801 -60 769 -126 q 816 -52 807 -49 q 824 -58 824 -54 q 813 -87 824 -62 q 778 -137 802 -111 q 730 -162 754 -162 q 614 68 614 -162 q 636 322 614 188 l 624 322 q 362 0 454 0 q 250 133 250 0 q 283 295 250 187 q 349 519 316 403 q 382 698 382 634 q 273 831 382 831 q 122 716 172 831 q 89 560 89 638 q 97 484 89 522 q 200 369 121 369 q 179 353 192 353 q 49 480 79 353 q 39 560 39 520 q 82 732 39 646 q 272 859 147 859 q 413 805 369 859 q 457 665 457 751 q 394 373 457 579 q 332 103 332 167 q 376 39 332 39 q 482 148 411 39 q 687 540 599 329 q 759 623 721 623 q 783 598 783 623 q 707 324 736 484 q 679 40 679 163 z "},"":{"ha":830,"x_min":-26,"x_max":783,"o":"m 741 889 q 668 813 709 850 q 616 776 627 776 q 604 784 604 776 q 630 837 604 797 q 690 917 656 878 q 716 933 704 933 q 738 928 728 933 q 749 912 749 922 q 741 889 749 901 m 246 -337 q 383 -297 322 -337 q 479 -210 443 -257 q 547 -66 514 -163 q 591 84 579 32 q 614 198 602 137 q 627 263 626 259 q 629 274 628 268 q 632 292 630 280 q 641 338 634 304 l 633 338 q 382 36 478 36 q 271 169 271 36 q 327 423 271 229 q 382 704 382 617 q 356 796 382 761 q 273 831 330 831 q 122 716 172 831 q 89 560 89 638 q 97 484 89 522 q 200 369 121 369 q 179 353 192 353 q 49 480 79 353 q 39 560 39 520 q 82 732 39 646 q 272 859 147 859 q 413 805 369 859 q 457 665 457 751 q 405 391 457 579 q 353 138 353 202 q 397 74 353 74 q 500 180 433 74 q 689 546 609 348 q 759 623 720 623 q 783 598 783 623 q 706 281 744 503 q 611 -91 660 21 q 554 -196 590 -140 q 477 -285 519 -252 q 376 -340 436 -318 q 247 -362 317 -362 q 8 -247 77 -362 q -24 -128 -24 -191 q -14 -57 -24 -93 q 82 71 11 37 q 136 86 112 86 q 179 64 172 86 l 181 57 q 61 -23 104 57 q 33 -119 33 -76 q 167 -326 33 -284 q 246 -337 202 -337 z "},"":{"ha":559,"x_min":-46,"x_max":628,"o":"m 63 463 q 8 425 23 447 q -7 391 -7 403 q 59 339 -7 347 q 130 689 96 543 q 153 751 139 730 q 182 771 168 771 q 199 751 200 771 q 113 339 176 634 q 153 344 127 340 q 261 630 209 523 q 368 791 314 739 q 509 859 437 859 q 622 778 602 859 q 628 736 628 758 q 576 578 628 664 q 343 368 494 441 q 177 316 264 329 q 151 242 166 286 q 126 171 136 198 q 104 110 117 143 q 83 56 92 77 q 64 17 74 36 q 33 -19 47 -19 q 10 26 10 -19 q 53 310 10 71 q -21 336 4 314 q -46 384 -46 358 q -20 441 -46 411 q 50 492 6 471 l 63 463 m 548 761 q 503 822 548 819 q 327 669 411 822 q 189 351 257 539 q 460 543 350 392 q 548 746 539 651 q 548 761 548 753 m 94 194 q 142 311 107 194 l 107 309 q 87 202 87 209 q 94 194 88 194 z "},"":{"ha":447,"x_min":-408,"x_max":434,"o":"m 211 26 q 277 62 256 26 q 298 144 298 98 q 273 228 298 191 q 224 299 249 264 q 200 376 200 334 q 227 458 200 418 q 287 525 254 499 q 346 588 319 551 q 373 663 373 626 q 354 724 373 701 q 303 747 336 747 q 202 689 241 747 q 145 541 163 632 q 113 339 127 450 q 80 118 100 229 q 27 -84 60 7 q -74 -233 -7 -176 q -240 -290 -141 -290 q -396 -209 -359 -290 q -408 -151 -408 -180 q -391 -91 -408 -121 q -316 -40 -364 -40 q -284 -57 -293 -40 l -282 -62 q -352 -113 -331 -62 q -361 -162 -361 -137 q -343 -216 -361 -188 q -239 -263 -312 -263 q -113 -206 -166 -263 q -33 -58 -61 -149 q 16 144 -4 33 q 57 365 37 254 q 104 567 77 476 q 181 715 131 658 q 299 772 231 772 q 401 741 367 772 q 434 667 434 709 q 413 594 434 624 q 363 539 392 563 q 303 492 333 516 q 252 438 273 468 q 231 377 231 409 q 251 315 231 344 q 293 264 270 286 q 336 210 317 243 q 356 131 356 177 q 315 43 356 84 q 209 1 274 1 q 122 53 144 1 q 112 105 112 79 q 124 159 112 131 q 194 211 150 211 q 222 188 222 211 q 160 129 179 173 q 152 90 152 111 q 211 26 152 26 z "},"":{"ha":531,"x_min":1,"x_max":471,"o":"m 259 760 q 337 677 300 722 q 374 621 374 632 q 362 610 374 610 q 311 638 350 610 q 229 709 272 667 q 212 736 212 724 q 219 759 212 748 q 236 771 226 771 q 259 760 247 771 m 93 0 q 2 143 2 0 q 44 331 2 229 q 199 527 103 474 q 276 549 240 549 q 332 533 311 549 q 358 502 352 518 l 364 488 q 346 469 361 469 q 325 477 328 469 q 319 492 322 486 q 303 508 316 498 q 276 519 291 519 q 144 389 203 519 q 78 107 78 239 q 104 40 78 40 q 164 87 126 40 q 244 206 202 134 q 363 418 318 328 q 441 498 401 498 q 462 472 462 498 q 437 412 452 451 q 396 258 421 373 q 370 28 370 142 q 404 -87 370 -87 q 429 -75 418 -87 q 449 -40 440 -63 q 464 -28 452 -28 q 471 -31 469 -28 q 471 -42 473 -34 q 463 -64 469 -50 q 439 -101 458 -78 q 401 -124 421 -124 q 329 -63 354 -124 q 304 81 304 -2 q 317 241 304 164 l 306 241 q 93 0 164 0 z "},"":{"ha":531,"x_min":1,"x_max":471,"o":"m 413 726 q 340 649 380 686 q 289 612 300 612 q 278 623 278 612 q 303 675 278 634 q 353 743 329 716 q 389 770 377 770 q 421 748 421 770 q 413 726 421 738 m 93 0 q 2 143 2 0 q 44 331 2 229 q 199 527 103 474 q 276 549 240 549 q 332 533 311 549 q 358 502 352 518 l 364 488 q 346 469 361 469 q 325 477 328 469 q 319 492 322 486 q 303 508 316 498 q 276 519 291 519 q 144 389 203 519 q 78 107 78 239 q 104 40 78 40 q 164 87 126 40 q 244 206 202 134 q 363 418 318 328 q 441 498 401 498 q 462 472 462 498 q 437 412 452 451 q 396 258 421 373 q 370 28 370 142 q 404 -87 370 -87 q 429 -75 418 -87 q 449 -40 440 -63 q 464 -28 452 -28 q 471 -31 469 -28 q 471 -42 473 -34 q 463 -64 469 -50 q 439 -101 458 -78 q 401 -124 421 -124 q 329 -63 354 -124 q 304 81 304 -2 q 317 241 304 164 l 306 241 q 93 0 164 0 z "},"":{"ha":531,"x_min":1,"x_max":471,"o":"m 325 733 q 341 746 325 733 q 366 759 358 759 q 379 750 373 759 l 446 619 l 413 619 l 363 704 l 219 619 l 186 619 q 325 733 292 708 m 93 0 q 2 143 2 0 q 44 331 2 229 q 199 527 103 474 q 276 549 240 549 q 332 533 311 549 q 358 502 352 518 l 364 488 q 346 469 361 469 q 325 477 328 469 q 319 492 322 486 q 303 508 316 498 q 276 519 291 519 q 144 389 203 519 q 78 107 78 239 q 104 40 78 40 q 164 87 126 40 q 244 206 202 134 q 363 418 318 328 q 441 498 401 498 q 462 472 462 498 q 437 412 452 451 q 396 258 421 373 q 370 28 370 142 q 404 -87 370 -87 q 429 -75 418 -87 q 449 -40 440 -63 q 464 -28 452 -28 q 471 -31 469 -28 q 471 -42 473 -34 q 463 -64 469 -50 q 439 -101 458 -78 q 401 -124 421 -124 q 329 -63 354 -124 q 304 81 304 -2 q 317 241 304 164 l 306 241 q 93 0 164 0 z "},"":{"ha":531,"x_min":1,"x_max":499,"o":"m 310 723 q 321 723 310 723 q 362 697 331 723 q 418 671 393 671 q 464 711 442 671 l 499 711 q 453 652 484 679 q 395 624 421 624 q 336 653 369 624 q 289 682 303 682 q 261 671 274 682 q 234 637 248 660 l 200 637 q 269 713 218 689 q 310 723 289 723 m 93 0 q 2 143 2 0 q 44 331 2 229 q 199 527 103 474 q 276 549 240 549 q 332 533 311 549 q 358 502 352 518 l 364 488 q 346 469 361 469 q 325 477 328 469 q 319 492 322 486 q 303 508 316 498 q 276 519 291 519 q 144 389 203 519 q 78 107 78 239 q 104 40 78 40 q 164 87 126 40 q 244 206 202 134 q 363 418 318 328 q 441 498 401 498 q 462 472 462 498 q 437 412 452 451 q 396 258 421 373 q 370 28 370 142 q 404 -87 370 -87 q 429 -75 418 -87 q 449 -40 440 -63 q 464 -28 452 -28 q 471 -31 469 -28 q 471 -42 473 -34 q 463 -64 469 -50 q 439 -101 458 -78 q 401 -124 421 -124 q 329 -63 354 -124 q 304 81 304 -2 q 317 241 304 164 l 306 241 q 93 0 164 0 z "},"":{"ha":531,"x_min":1,"x_max":472,"o":"m 259 621 q 236 666 236 621 q 250 722 236 692 q 291 751 264 751 q 313 726 313 751 q 300 686 313 712 q 273 640 287 660 l 259 621 m 418 621 q 394 667 394 621 q 408 722 394 693 q 449 751 422 751 q 472 726 472 751 q 431 640 472 700 l 418 621 m 93 0 q 2 143 2 0 q 44 331 2 229 q 199 527 103 474 q 276 549 240 549 q 332 533 311 549 q 358 502 352 518 l 364 488 q 346 469 361 469 q 325 477 328 469 q 319 492 322 486 q 303 508 316 498 q 276 519 291 519 q 144 389 203 519 q 78 107 78 239 q 104 40 78 40 q 164 87 126 40 q 244 206 202 134 q 363 418 318 328 q 441 498 401 498 q 462 472 462 498 q 437 412 452 451 q 396 258 421 373 q 370 28 370 142 q 404 -87 370 -87 q 429 -75 418 -87 q 449 -40 440 -63 q 464 -28 452 -28 q 471 -31 469 -28 q 471 -42 473 -34 q 463 -64 469 -50 q 439 -101 458 -78 q 401 -124 421 -124 q 329 -63 354 -124 q 304 81 304 -2 q 317 241 304 164 l 306 241 q 93 0 164 0 z "},"":{"ha":531,"x_min":1,"x_max":471,"o":"m 267 706 q 267 722 267 706 q 289 762 267 739 q 347 786 312 786 q 404 762 381 786 q 427 705 427 739 q 404 648 427 671 q 347 624 381 624 q 289 648 312 624 q 267 706 267 672 m 300 706 q 300 696 300 706 q 313 674 300 687 q 345 661 326 661 q 378 674 364 661 q 391 706 391 687 q 378 738 391 726 q 345 751 364 751 q 313 738 326 751 q 300 706 300 726 m 93 0 q 2 143 2 0 q 44 331 2 229 q 199 527 103 474 q 276 549 240 549 q 332 533 311 549 q 358 502 352 518 l 364 488 q 346 469 361 469 q 325 477 328 469 q 319 492 322 486 q 303 508 316 498 q 276 519 291 519 q 144 389 203 519 q 78 107 78 239 q 104 40 78 40 q 164 87 126 40 q 244 206 202 134 q 363 418 318 328 q 441 498 401 498 q 462 472 462 498 q 437 412 452 451 q 396 258 421 373 q 370 28 370 142 q 404 -87 370 -87 q 429 -75 418 -87 q 449 -40 440 -63 q 464 -28 452 -28 q 471 -31 469 -28 q 471 -42 473 -34 q 463 -64 469 -50 q 439 -101 458 -78 q 401 -124 421 -124 q 329 -63 354 -124 q 304 81 304 -2 q 317 241 304 164 l 306 241 q 93 0 164 0 z "},"":{"ha":720,"x_min":1,"x_max":663,"o":"m 578 539 q 662 440 662 539 q 624 321 662 383 q 473 219 567 229 l 453 218 q 426 223 437 218 q 409 240 414 229 q 553 331 488 240 q 607 466 607 404 q 570 511 607 511 q 433 397 497 511 q 366 141 366 272 q 429 8 366 30 q 460 3 441 3 q 500 13 479 3 q 536 36 521 22 q 583 94 564 62 q 600 103 588 103 q 618 97 620 103 q 594 56 616 84 q 554 9 572 27 q 506 -22 536 -8 q 447 -36 477 -36 q 313 36 351 -36 q 287 152 287 86 q 292 213 287 181 q 93 0 148 0 q 2 143 2 0 q 44 331 2 229 q 199 527 103 474 q 276 549 240 549 q 332 533 311 549 q 358 502 352 518 l 364 488 q 346 469 361 469 q 325 477 328 469 q 319 492 322 486 q 303 508 316 498 q 276 519 291 519 q 144 389 203 519 q 78 107 78 239 q 104 40 78 40 q 214 156 130 40 q 345 361 298 271 q 452 495 392 451 q 578 539 512 539 z "},"":{"ha":431,"x_min":1,"x_max":431,"o":"m 79 -114 q 106 -28 57 -103 q 34 24 61 -13 q 2 150 2 72 q 102 436 2 304 q 183 508 137 481 q 273 536 230 536 q 337 510 317 536 q 413 607 367 607 q 431 588 431 607 q 408 553 422 574 q 371 476 394 531 q 348 378 348 420 q 336 363 348 363 q 319 389 321 363 q 327 470 319 432 q 278 504 320 504 q 137 383 198 504 q 77 147 77 262 q 168 2 77 2 q 235 24 203 2 q 280 69 267 47 l 294 92 q 313 102 299 102 q 328 96 328 102 l 328 92 q 303 53 323 80 q 265 9 283 26 q 218 -22 247 -8 q 168 -36 189 -36 q 130 -33 148 -36 l 99 -90 q 164 -76 128 -76 q 231 -118 220 -76 q 232 -134 232 -126 q 195 -201 232 -167 q 94 -234 158 -234 q 23 -200 30 -234 q 38 -167 19 -177 q 49 -164 42 -164 q 64 -178 60 -164 q 47 -194 48 -178 q 70 -219 44 -213 l 86 -220 q 182 -171 152 -220 q 194 -136 194 -151 q 183 -108 194 -120 q 152 -96 172 -96 q 118 -99 132 -96 q 94 -108 104 -103 q 81 -114 84 -113 l 79 -114 z "},"":{"ha":432,"x_min":-2,"x_max":376,"o":"m 213 760 q 292 677 254 722 q 329 621 329 632 q 317 610 329 610 q 266 638 304 610 q 183 709 227 667 q 167 736 167 724 q 173 759 167 748 q 191 771 180 771 q 213 760 202 771 m 290 539 q 374 440 374 539 q 337 321 374 383 q 166 218 272 218 q 138 223 149 218 q 121 240 127 229 q 266 331 200 240 q 319 466 319 404 q 282 511 319 511 q 146 397 209 511 q 78 141 78 272 q 141 8 78 30 q 172 3 153 3 q 212 13 191 3 q 248 36 233 22 q 296 94 277 62 q 312 103 300 103 q 331 97 332 103 q 306 56 328 84 q 266 9 284 27 q 218 -22 248 -8 q 159 -36 189 -36 q 9 76 41 -36 q -1 153 -1 113 q 33 316 -1 228 q 183 508 88 449 q 290 539 236 539 z "},"":{"ha":432,"x_min":-2,"x_max":379,"o":"m 371 726 q 297 649 338 686 q 245 612 256 612 q 234 623 234 612 q 260 674 234 633 q 320 753 286 714 q 346 770 334 770 q 368 765 358 770 q 378 749 378 760 q 371 726 378 739 m 290 539 q 374 440 374 539 q 337 321 374 383 q 166 218 272 218 q 138 223 149 218 q 121 240 127 229 q 266 331 200 240 q 319 466 319 404 q 282 511 319 511 q 146 397 209 511 q 78 141 78 272 q 141 8 78 30 q 172 3 153 3 q 212 13 191 3 q 248 36 233 22 q 296 94 277 62 q 312 103 300 103 q 331 97 332 103 q 306 56 328 84 q 266 9 284 27 q 218 -22 248 -8 q 159 -36 189 -36 q 9 76 41 -36 q -1 153 -1 113 q 33 316 -1 228 q 183 508 88 449 q 290 539 236 539 z "},"":{"ha":432,"x_min":-2,"x_max":396,"o":"m 297 750 q 317 759 309 759 q 329 750 324 759 l 396 619 l 364 619 l 313 704 l 169 619 l 137 619 q 297 750 243 708 m 290 539 q 374 440 374 539 q 337 321 374 383 q 166 218 272 218 q 138 223 149 218 q 121 240 127 229 q 266 331 200 240 q 319 466 319 404 q 282 511 319 511 q 146 397 209 511 q 78 141 78 272 q 141 8 78 30 q 172 3 153 3 q 212 13 191 3 q 248 36 233 22 q 296 94 277 62 q 312 103 300 103 q 331 97 332 103 q 306 56 328 84 q 266 9 284 27 q 218 -22 248 -8 q 159 -36 189 -36 q 9 76 41 -36 q -1 153 -1 113 q 33 316 -1 228 q 183 508 88 449 q 290 539 236 539 z "},"":{"ha":432,"x_min":-2,"x_max":431,"o":"m 219 621 q 196 666 196 621 q 209 722 196 692 q 250 751 223 751 q 273 726 273 751 q 260 686 273 712 q 233 640 247 660 l 219 621 m 377 621 q 353 666 353 621 q 368 722 353 692 q 409 751 382 751 q 431 726 431 751 q 418 686 431 712 q 391 640 404 660 l 377 621 m 290 539 q 374 440 374 539 q 337 321 374 383 q 166 218 272 218 q 138 223 149 218 q 121 240 127 229 q 266 331 200 240 q 319 466 319 404 q 282 511 319 511 q 146 397 209 511 q 78 141 78 272 q 141 8 78 30 q 172 3 153 3 q 212 13 191 3 q 248 36 233 22 q 296 94 277 62 q 312 103 300 103 q 331 97 332 103 q 306 56 328 84 q 266 9 284 27 q 218 -22 248 -8 q 159 -36 189 -36 q 9 76 41 -36 q -1 153 -1 113 q 33 316 -1 228 q 183 508 88 449 q 290 539 236 539 z "},"":{"ha":242,"x_min":29,"x_max":201,"o":"m 29 94 q 63 388 29 259 q 149 517 97 517 q 174 489 174 517 q 147 412 163 460 q 103 239 130 364 q 76 17 76 114 q 59 1 76 1 q 29 94 29 1 m 86 760 q 164 676 127 721 q 201 621 201 631 q 188 610 201 610 q 137 638 176 610 q 54 709 98 667 q 38 736 38 724 q 44 759 38 748 q 62 770 51 770 q 86 760 73 770 z "},"":{"ha":242,"x_min":29,"x_max":294,"o":"m 29 94 q 63 388 29 259 q 149 517 97 517 q 174 489 174 517 q 147 412 163 460 q 103 239 130 364 q 76 17 76 114 q 59 1 76 1 q 29 94 29 1 m 287 726 q 213 649 253 686 q 162 612 173 612 q 151 623 151 612 q 177 675 151 634 q 226 743 202 716 q 262 770 250 770 q 294 748 294 770 q 287 726 294 738 z "},"":{"ha":242,"x_min":22,"x_max":281,"o":"m 29 94 q 63 388 29 259 q 149 517 97 517 q 174 489 174 517 q 147 412 163 460 q 103 239 130 364 q 76 17 76 114 q 59 1 76 1 q 29 94 29 1 m 182 750 q 201 758 191 758 q 214 750 211 758 l 281 619 l 249 619 l 199 704 l 54 619 l 22 619 q 182 750 129 708 z "},"":{"ha":242,"x_min":29,"x_max":307,"o":"m 29 94 q 63 388 29 259 q 149 517 97 517 q 174 489 174 517 q 147 412 163 460 q 103 239 130 364 q 76 17 76 114 q 59 1 76 1 q 29 94 29 1 m 94 621 q 71 667 71 621 q 85 722 71 693 q 126 751 99 751 q 149 726 149 751 q 136 686 149 712 q 109 640 122 660 l 94 621 m 252 621 q 229 666 229 621 q 243 722 229 692 q 283 751 257 751 q 307 726 307 751 q 293 686 307 712 q 267 640 280 660 l 252 621 z "},"":{"ha":587,"x_min":7,"x_max":519,"o":"m 429 642 q 488 406 488 553 q 461 219 488 314 q 357 48 434 124 q 173 -29 279 -29 q 26 74 67 -29 q 7 175 7 122 q 24 284 7 228 q 146 441 61 400 q 221 459 181 459 q 314 419 280 459 q 348 326 348 380 q 332 216 348 271 q 316 196 327 198 q 304 207 299 191 q 321 311 321 264 q 298 392 321 358 q 231 427 274 427 q 107 320 154 427 q 73 167 73 243 q 79 104 73 136 q 183 -2 98 -2 q 281 44 236 -2 q 400 318 364 128 q 412 426 412 384 q 384 617 412 551 l 321 583 q 308 586 308 576 q 347 621 308 599 q 373 638 359 628 q 276 700 340 700 l 267 732 q 414 661 356 732 q 456 686 424 667 q 503 713 487 704 q 519 710 519 722 q 474 668 519 692 q 429 642 462 660 z "},"":{"ha":498,"x_min":13,"x_max":428,"o":"m 240 723 q 251 723 240 723 q 292 697 261 723 q 347 671 322 671 q 394 711 372 671 l 428 711 q 382 652 413 679 q 325 624 351 624 q 266 653 299 624 q 218 682 233 682 q 190 671 203 682 q 164 637 177 660 l 130 637 q 200 713 148 689 q 240 723 219 723 m 86 180 q 364 534 229 534 q 421 480 421 534 q 401 413 413 454 q 368 263 389 371 q 348 74 348 156 q 382 -43 348 -43 q 408 -33 396 -43 q 424 -22 420 -22 q 424 -47 440 -22 q 404 -68 419 -54 q 373 -81 389 -81 q 307 -21 331 -81 q 283 137 283 40 q 331 473 283 290 q 322 488 336 488 q 302 479 313 488 q 190 324 249 432 q 98 132 131 217 q 64 33 64 47 q 49 19 64 19 q 13 107 13 19 q 47 407 13 272 q 129 541 81 541 q 149 517 149 541 q 76 180 98 351 l 86 180 z "},"":{"ha":459,"x_min":-2,"x_max":471,"o":"m 191 820 q 269 737 231 782 q 307 680 307 691 q 294 669 307 669 q 242 698 282 669 q 160 769 201 728 q 143 795 143 783 q 149 814 143 807 q 168 829 157 829 q 191 820 179 829 m 136 -10 q -1 178 -1 -10 q 52 389 -1 283 q 213 522 120 522 q 236 516 227 522 q 248 496 244 509 q 127 383 178 496 q 76 162 76 271 q 148 30 76 30 q 233 93 189 30 q 307 258 278 156 q 337 463 337 360 l 337 477 q 280 532 302 499 q 258 581 258 566 q 272 611 258 597 q 300 624 286 624 q 341 587 321 624 q 369 501 361 549 q 429 478 403 478 q 471 487 456 478 q 460 459 471 471 q 426 447 449 447 q 372 458 402 447 q 340 243 371 351 q 253 63 309 136 q 136 -10 198 -10 z "},"":{"ha":459,"x_min":-2,"x_max":471,"o":"m 353 769 q 279 692 320 729 q 227 656 238 656 q 217 666 217 656 q 242 717 217 677 q 302 797 268 758 q 328 813 317 813 q 350 808 340 813 q 360 793 360 803 q 353 769 360 782 m 136 -10 q -1 178 -1 -10 q 52 389 -1 283 q 213 522 120 522 q 236 516 227 522 q 248 496 244 509 q 127 383 178 496 q 76 162 76 271 q 148 30 76 30 q 233 93 189 30 q 307 258 278 156 q 337 463 337 360 l 337 477 q 280 532 302 499 q 258 581 258 566 q 272 611 258 597 q 300 624 286 624 q 341 587 321 624 q 369 501 361 549 q 429 478 403 478 q 471 487 456 478 q 460 459 471 471 q 426 447 449 447 q 372 458 402 447 q 340 243 371 351 q 253 63 309 136 q 136 -10 198 -10 z "},"":{"ha":459,"x_min":-2,"x_max":471,"o":"m 290 780 q 309 789 299 789 q 322 780 319 789 l 389 650 l 357 650 l 307 734 l 162 650 l 130 650 q 290 780 237 739 m 136 -10 q -1 178 -1 -10 q 52 389 -1 283 q 213 522 120 522 q 236 516 227 522 q 248 496 244 509 q 127 383 178 496 q 76 162 76 271 q 148 30 76 30 q 233 93 189 30 q 307 258 278 156 q 337 463 337 360 l 337 477 q 280 532 302 499 q 258 581 258 566 q 272 611 258 597 q 300 624 286 624 q 341 587 321 624 q 369 501 361 549 q 429 478 403 478 q 471 487 456 478 q 460 459 471 471 q 426 447 449 447 q 372 458 402 447 q 340 243 371 351 q 253 63 309 136 q 136 -10 198 -10 z "},"":{"ha":459,"x_min":-2,"x_max":471,"o":"m 152 736 q 163 746 152 736 q 193 766 173 757 q 233 776 212 776 q 285 749 254 776 q 333 723 316 723 q 364 733 351 723 q 388 762 377 742 l 421 762 q 376 703 407 730 q 318 676 344 676 q 259 704 292 676 q 212 733 227 733 q 183 722 197 733 q 158 688 170 711 l 122 688 q 152 736 131 714 m 136 -10 q -1 178 -1 -10 q 52 389 -1 283 q 213 522 120 522 q 236 516 227 522 q 248 496 244 509 q 127 383 178 496 q 76 162 76 271 q 148 30 76 30 q 233 93 189 30 q 307 258 278 156 q 337 463 337 360 l 337 477 q 280 532 302 499 q 258 581 258 566 q 272 611 258 597 q 300 624 286 624 q 341 587 321 624 q 369 501 361 549 q 429 478 403 478 q 471 487 456 478 q 460 459 471 471 q 426 447 449 447 q 372 458 402 447 q 340 243 371 351 q 253 63 309 136 q 136 -10 198 -10 z "},"":{"ha":459,"x_min":-2,"x_max":471,"o":"m 188 676 q 164 719 164 676 q 179 776 164 746 q 220 806 193 806 q 242 780 242 806 q 229 741 242 767 q 202 696 216 714 l 188 676 m 347 676 q 323 721 323 676 q 337 776 323 747 q 378 806 351 806 q 400 780 400 806 q 360 696 400 753 l 347 676 m 136 -10 q -1 178 -1 -10 q 52 389 -1 283 q 213 522 120 522 q 236 516 227 522 q 248 496 244 509 q 127 383 178 496 q 76 162 76 271 q 148 30 76 30 q 233 93 189 30 q 307 258 278 156 q 337 463 337 360 l 337 477 q 280 532 302 499 q 258 581 258 566 q 272 611 258 597 q 300 624 286 624 q 341 587 321 624 q 369 501 361 549 q 429 478 403 478 q 471 487 456 478 q 460 459 471 471 q 426 447 449 447 q 372 458 402 447 q 340 243 371 351 q 253 63 309 136 q 136 -10 198 -10 z "},"":{"ha":622,"x_min":70,"x_max":519,"o":"m 259 130 q 236 174 236 130 q 250 231 236 201 q 291 261 264 261 q 313 236 313 261 q 273 150 313 209 l 259 130 m 286 426 q 262 469 262 426 q 277 526 262 496 q 318 556 291 556 q 340 530 340 556 q 327 491 340 517 q 300 444 313 464 l 286 426 m 496 334 l 107 326 q 70 348 74 326 q 83 368 71 364 q 107 361 88 361 l 509 361 q 519 349 520 361 q 496 334 514 336 z "},"":{"ha":443,"x_min":-1,"x_max":367,"o":"m 132 -8 q 0 189 0 1 q 52 396 0 292 q 218 541 119 529 l 248 741 q 258 754 249 754 q 263 753 260 754 q 282 706 282 744 q 233 393 282 678 q 170 29 183 108 q 274 151 233 48 q 314 343 314 253 q 251 469 314 469 q 254 478 252 472 q 266 493 256 483 q 292 502 277 502 q 367 371 367 502 q 308 133 367 257 q 164 -7 249 9 q 141 -159 160 -36 q 133 -171 139 -171 q 129 -170 131 -171 q 117 -145 117 -163 q 124 -69 117 -127 q 132 -8 131 -11 m 211 504 q 133 402 168 478 q 89 265 99 326 q 79 169 79 204 q 139 27 79 38 q 211 504 144 68 z "},"":{"ha":528,"x_min":-1,"x_max":469,"o":"m 389 -83 q 414 -72 402 -83 q 436 -36 426 -60 q 449 -26 437 -26 q 458 -36 461 -26 q 449 -60 456 -46 q 424 -98 443 -74 q 384 -122 404 -122 q 316 -67 340 -122 q 290 71 290 -11 q 302 239 290 152 l 292 239 q 86 4 158 4 q 0 135 0 4 q 56 396 0 266 q 163 539 117 539 q 183 514 183 539 q 103 274 137 391 q 70 101 70 158 q 97 43 70 43 q 153 89 116 43 q 229 200 190 134 q 356 440 312 341 q 447 539 400 539 q 469 514 469 539 q 368 178 398 373 q 356 26 356 100 q 389 -83 356 -83 m 227 760 q 306 677 268 722 q 343 621 343 631 q 331 610 343 610 q 279 638 318 610 q 197 709 240 667 q 180 736 180 724 q 187 759 180 748 q 204 771 193 771 q 227 760 216 771 z "},"":{"ha":528,"x_min":-1,"x_max":469,"o":"m 424 726 q 350 649 391 686 q 298 612 309 612 q 288 623 288 612 q 313 674 288 633 q 373 753 339 714 q 399 770 388 770 q 421 765 411 770 q 431 749 431 760 q 424 726 431 739 m 389 -83 q 414 -72 402 -83 q 436 -36 426 -60 q 449 -26 437 -26 q 458 -36 461 -26 q 449 -60 456 -46 q 424 -98 443 -74 q 384 -122 404 -122 q 316 -67 340 -122 q 290 71 290 -11 q 302 239 290 152 l 292 239 q 86 4 158 4 q 0 135 0 4 q 56 396 0 266 q 163 539 117 539 q 183 514 183 539 q 103 274 137 391 q 70 101 70 158 q 97 43 70 43 q 153 89 116 43 q 229 200 190 134 q 356 440 312 341 q 447 539 400 539 q 469 514 469 539 q 368 178 398 373 q 356 26 356 100 q 389 -83 356 -83 z "},"":{"ha":528,"x_min":-1,"x_max":469,"o":"m 344 750 q 363 758 353 758 q 377 750 373 758 l 443 619 l 411 619 l 361 704 l 217 619 l 184 619 q 344 750 291 708 m 389 -83 q 414 -72 402 -83 q 436 -36 426 -60 q 449 -26 437 -26 q 458 -36 461 -26 q 449 -60 456 -46 q 424 -98 443 -74 q 384 -122 404 -122 q 316 -67 340 -122 q 290 71 290 -11 q 302 239 290 152 l 292 239 q 86 4 158 4 q 0 135 0 4 q 56 396 0 266 q 163 539 117 539 q 183 514 183 539 q 103 274 137 391 q 70 101 70 158 q 97 43 70 43 q 153 89 116 43 q 229 200 190 134 q 356 440 312 341 q 447 539 400 539 q 469 514 469 539 q 368 178 398 373 q 356 26 356 100 q 389 -83 356 -83 z "},"":{"ha":528,"x_min":-1,"x_max":469,"o":"m 248 621 q 224 667 224 621 q 238 722 224 693 q 279 751 252 751 q 301 726 301 751 q 261 640 301 699 l 248 621 m 406 621 q 382 666 382 621 q 396 722 382 692 q 437 751 410 751 q 460 726 460 751 q 447 686 460 712 q 420 640 433 660 l 406 621 m 389 -83 q 414 -72 402 -83 q 436 -36 426 -60 q 449 -26 437 -26 q 458 -36 461 -26 q 449 -60 456 -46 q 424 -98 443 -74 q 384 -122 404 -122 q 316 -67 340 -122 q 290 71 290 -11 q 302 239 290 152 l 292 239 q 86 4 158 4 q 0 135 0 4 q 56 396 0 266 q 163 539 117 539 q 183 514 183 539 q 103 274 137 391 q 70 101 70 158 q 97 43 70 43 q 153 89 116 43 q 229 200 190 134 q 356 440 312 341 q 447 539 400 539 q 469 514 469 539 q 368 178 398 373 q 356 26 356 100 q 389 -83 356 -83 z "},"":{"ha":517,"x_min":-93,"x_max":468,"o":"m 418 726 q 346 649 387 687 q 293 612 304 612 q 282 621 282 612 q 308 675 282 634 q 368 753 333 716 q 393 770 382 770 q 426 748 426 770 q 418 726 426 738 m 30 -348 q 187 -253 130 -348 q 262 -46 236 -170 q -47 -199 61 -50 q -68 -202 -53 -209 q -72 -191 -76 -198 q 61 -68 -24 -119 q 269 -13 147 -18 q 292 117 281 42 q 318 261 303 191 l 308 261 q 88 4 163 4 q 3 134 3 4 q 59 396 3 264 q 160 538 114 528 l 167 539 q 186 514 186 539 q 154 436 173 484 q 104 277 136 388 q 73 105 73 167 q 100 43 73 43 q 200 151 131 43 q 376 471 301 309 q 444 539 408 539 q 468 513 468 539 q 417 368 447 474 q 368 153 387 261 q 336 -17 349 44 q 433 -90 420 -31 q 436 -117 436 -100 q 422 -147 436 -134 q 399 -160 409 -160 q 400 -133 401 -152 q 393 -100 399 -113 q 370 -72 387 -87 q 327 -51 353 -58 q 30 -373 241 -373 q -91 -309 -61 -373 q -92 -303 -92 -306 q -81 -295 -92 -297 q -63 -302 -69 -293 q 30 -348 -43 -348 z "},"":{"ha":534,"x_min":-44,"x_max":464,"o":"m 382 549 q 443 524 421 549 q 464 457 464 500 q 431 273 464 414 q 397 76 397 131 q 427 -7 397 -7 q 416 -24 427 -16 q 389 -32 404 -32 q 317 81 317 -32 q 354 295 317 152 q 392 477 392 438 q 361 517 392 517 q 262 413 310 517 q 178 161 214 309 q 110 -136 142 12 q -22 -491 32 -491 q -44 -418 -44 -488 q -25 -181 -44 -348 q 42 251 -6 -14 q 128 672 90 517 q 162 747 139 721 q 201 772 186 772 q 224 747 232 772 q 106 263 161 537 q 28 -168 51 -11 q 4 -340 4 -324 q 6 -356 4 -356 q 78 -121 32 -356 q 190 314 126 120 q 274 482 223 414 q 382 549 324 549 z "},"":{"ha":517,"x_min":-93,"x_max":468,"o":"m 239 621 q 216 666 216 621 q 230 722 216 692 q 271 751 244 751 q 293 726 293 751 q 280 686 293 712 q 253 640 267 660 l 239 621 m 398 621 q 374 666 374 621 q 388 722 374 692 q 429 751 402 751 q 452 726 452 751 q 411 640 452 700 l 398 621 m -63 -302 q 30 -348 -43 -348 q 187 -253 130 -348 q 262 -46 236 -170 q -47 -199 61 -50 q -68 -202 -53 -209 q -72 -191 -76 -198 q 61 -68 -24 -119 q 269 -13 147 -18 q 292 117 281 42 q 318 261 303 191 l 308 261 q 88 4 163 4 q 3 134 3 4 q 59 396 3 264 q 160 538 114 528 l 167 539 q 186 514 186 539 q 154 436 173 484 q 104 277 136 388 q 73 105 73 167 q 100 43 73 43 q 200 151 131 43 q 376 471 301 309 q 444 539 408 539 q 468 513 468 539 q 417 368 447 474 q 368 153 387 261 q 336 -17 349 44 q 433 -90 420 -31 q 436 -117 436 -100 q 422 -147 436 -134 q 399 -160 409 -160 q 400 -133 401 -152 q 393 -100 399 -113 q 370 -72 387 -87 q 327 -51 353 -58 q 30 -373 241 -373 q -91 -309 -61 -373 q -92 -303 -92 -306 q -81 -295 -92 -297 q -63 -302 -69 -293 z "},"":{"ha":1246,"x_min":76,"x_max":1272,"o":"m 627 520 q 534 723 627 723 q 542 738 534 731 q 578 750 557 750 q 676 636 651 750 q 686 524 686 588 q 667 379 686 461 q 923 529 772 496 q 834 640 834 561 q 913 789 834 719 q 1112 860 992 860 q 1143 844 1133 860 q 1153 813 1153 829 l 1152 799 q 1113 803 1143 803 q 943 732 1013 803 q 896 634 896 682 q 1034 541 896 541 q 1055 534 1047 541 q 1068 512 1063 527 q 746 364 876 512 q 624 59 624 227 q 680 -90 624 -38 q 793 -132 723 -132 q 1036 1 951 -132 q 1090 184 1090 88 q 1038 307 1090 288 q 1020 310 1030 310 q 1073 336 1034 336 q 1144 263 1128 336 q 1150 208 1150 237 q 1117 59 1150 140 q 936 -138 1057 -81 q 792 -169 869 -169 q 603 -100 667 -169 q 540 77 539 -31 q 304 -64 437 -64 q 101 88 154 -64 q 76 246 76 159 q 100 433 76 332 q 263 756 150 634 q 473 860 361 860 q 521 846 504 860 q 538 818 538 832 l 539 804 q 498 809 528 809 q 285 656 378 809 q 171 310 192 502 q 166 220 166 261 q 216 26 166 93 q 320 -27 256 -27 q 541 157 454 -27 q 627 520 627 341 m 1191 609 q 1181 603 1191 603 q 1152 620 1152 603 q 1178 803 1152 733 q 1246 872 1203 872 q 1264 864 1256 872 q 1272 843 1272 856 q 1200 694 1221 792 q 1191 609 1191 653 z "},"":{"ha":714,"x_min":-2,"x_max":658,"o":"m 572 539 q 658 439 658 539 q 619 321 658 383 q 468 219 561 229 l 448 218 q 421 223 431 218 q 404 240 410 229 q 549 331 483 240 q 601 464 601 403 q 564 511 601 511 q 423 388 486 511 q 360 147 360 266 q 452 3 360 3 q 557 62 508 3 q 579 94 568 76 q 598 103 582 103 q 613 97 613 103 l 613 94 q 588 53 608 79 q 549 9 568 27 q 502 -22 531 -8 q 442 -36 472 -36 q 333 3 372 -36 q 284 108 294 42 q 136 -10 214 -10 q -1 182 -1 -10 q 57 403 -1 292 q 231 541 129 541 q 253 534 244 541 q 266 514 262 528 q 133 396 189 514 q 77 162 77 278 q 148 30 77 30 q 257 140 204 30 q 314 377 314 260 q 267 467 314 467 q 278 488 267 478 q 304 499 290 499 q 368 410 362 499 q 572 539 457 539 z "},"":{"ha":670,"x_min":4,"x_max":669,"o":"m 408 1083 l 439 1083 l 511 999 l 634 1083 l 669 1083 q 508 952 561 994 q 473 952 484 933 l 408 1083 m 54 -46 q 141 -144 54 -128 q 179 -148 158 -148 q 399 -58 318 -148 q 480 167 480 31 q 461 265 480 220 q 412 339 441 310 q 349 399 383 369 q 287 453 316 429 q 238 512 258 478 q 219 586 219 547 q 311 774 219 688 q 508 860 402 860 q 539 844 529 860 q 549 813 549 829 l 548 799 q 509 803 540 803 q 371 737 438 803 q 304 582 304 670 q 324 513 304 547 q 372 453 343 479 q 434 396 401 428 q 497 334 468 364 q 545 259 526 303 q 564 167 564 216 q 453 -72 564 32 q 179 -177 342 -177 q 4 -88 41 -177 q 27 74 -24 -14 q 174 194 78 163 q 238 206 210 206 q 276 196 266 206 q 290 167 287 187 q 111 82 186 167 q 54 -46 54 19 m 570 569 q 559 563 570 563 q 540 568 549 563 q 531 580 531 572 q 557 762 531 693 q 624 831 582 831 q 643 823 636 831 q 651 803 651 816 q 579 653 601 753 q 570 569 570 613 z "},"":{"ha":421,"x_min":-18,"x_max":474,"o":"m 313 788 q 294 780 304 780 q 280 788 284 780 l 213 920 l 246 920 l 318 834 l 441 920 l 474 920 q 313 788 367 831 m 79 38 q 129 -40 79 -40 q 216 37 176 -40 q 257 230 257 113 q 236 390 257 287 q 216 525 216 493 q 218 567 216 557 q 134 412 203 543 q 12 203 66 280 q 0 201 8 199 q -13 207 -8 202 q -18 214 -18 212 q -17 218 -18 217 q 105 426 36 293 q 221 624 174 559 q 313 690 268 690 q 337 670 337 690 q 318 634 337 657 q 258 496 258 567 q 290 333 258 453 q 322 158 322 212 q 268 -8 322 60 q 144 -77 213 -77 q 47 36 47 -77 q 98 212 47 120 q 202 337 150 304 q 215 329 212 343 q 211 310 218 314 q 109 168 152 277 q 79 38 79 91 z "},"":{"ha":830,"x_min":-26,"x_max":783,"o":"m 534 714 q 511 759 511 714 q 526 815 511 786 q 567 844 540 844 q 589 819 589 844 q 576 779 589 806 q 549 733 562 753 l 534 714 m 693 714 q 670 759 670 714 q 684 815 670 786 q 724 844 698 844 q 748 819 748 844 q 707 733 748 793 l 693 714 m 246 -337 q 383 -297 322 -337 q 479 -210 443 -257 q 547 -66 514 -163 q 591 84 579 32 q 614 198 602 137 q 627 263 626 259 q 629 274 628 268 q 632 292 630 280 q 641 338 634 304 l 633 338 q 382 36 478 36 q 271 169 271 36 q 327 423 271 229 q 382 704 382 617 q 356 796 382 761 q 273 831 330 831 q 122 716 172 831 q 89 560 89 638 q 97 484 89 522 q 200 369 121 369 q 179 353 192 353 q 49 480 79 353 q 39 560 39 520 q 82 732 39 646 q 272 859 147 859 q 413 805 369 859 q 457 665 457 751 q 405 391 457 579 q 353 138 353 202 q 397 74 353 74 q 500 180 433 74 q 689 546 609 348 q 759 623 720 623 q 783 598 783 623 q 706 281 744 503 q 611 -91 660 21 q 554 -196 590 -140 q 477 -285 519 -252 q 376 -340 436 -318 q 247 -362 317 -362 q 8 -247 77 -362 q -24 -128 -24 -191 q -14 -57 -24 -93 q 82 71 11 37 q 136 86 112 86 q 179 64 172 86 l 181 57 q 61 -23 104 57 q 33 -119 33 -76 q 167 -326 33 -284 q 246 -337 202 -337 z "},"":{"ha":742,"x_min":-23,"x_max":840,"o":"m 619 952 q 600 944 610 944 q 586 952 590 944 l 519 1083 l 551 1083 l 623 999 l 747 1083 l 780 1083 q 619 952 672 994 m 393 859 q 422 859 393 859 q 549 833 451 859 q 676 807 647 807 q 739 833 706 807 q 798 860 772 860 q 814 849 808 860 q 819 828 820 838 q 818 818 818 819 q 734 732 782 818 q 648 563 699 670 q 577 412 598 456 q 654 414 634 414 q 664 401 666 414 q 647 388 662 388 q 621 387 632 388 q 591 384 609 386 q 561 382 572 383 q 286 3 420 103 q 433 -68 320 -12 q 609 -147 546 -123 q 707 -171 672 -171 q 761 -165 741 -171 q 792 -150 781 -159 q 822 -111 814 -132 q 840 -139 840 -111 q 799 -214 840 -186 q 704 -242 758 -242 q 584 -218 651 -242 q 475 -170 518 -193 q 347 -94 432 -147 q 238 -28 262 -42 q 106 -63 170 -63 q -14 -14 12 -63 q -22 15 -22 -1 q -1 51 -22 31 q 74 70 20 70 q 238 23 128 70 q 472 371 339 109 q 378 364 419 364 q 333 391 338 364 q 347 411 334 408 q 391 404 352 404 q 491 408 430 404 q 541 507 508 440 q 593 611 574 574 q 684 770 642 710 q 632 764 660 764 q 504 791 603 764 q 356 818 406 818 q 177 713 229 818 q 150 618 150 661 q 158 544 150 576 q 230 457 178 469 l 248 454 q 211 429 242 429 q 117 504 146 429 q 103 587 103 542 q 123 684 103 631 q 282 840 168 800 q 393 859 334 859 m 9 10 q 37 -22 9 -10 q 107 -33 64 -33 q 198 -4 149 -33 q 61 42 102 42 q 10 19 19 42 q 9 10 9 14 z "},"":{"ha":463,"x_min":-99,"x_max":451,"o":"m 290 628 q 271 620 280 620 q 257 628 261 620 l 190 760 l 221 760 l 293 674 l 418 760 l 451 760 q 290 628 343 670 m -12 -373 q -99 -290 -99 -373 q -24 -117 -99 -217 q 164 26 51 -18 q 176 23 170 28 q 181 12 181 18 q 174 2 181 6 q -18 -153 60 -40 q -70 -281 -70 -231 q -31 -332 -70 -331 q 170 -206 61 -332 q 294 8 262 -99 q 306 69 306 44 q 257 121 306 121 q 164 96 219 121 q 94 71 110 71 q 62 109 69 71 l 60 122 q 227 236 142 122 q 313 426 298 333 q 316 456 316 442 q 272 510 316 509 q 185 476 228 510 q 115 398 142 442 q 71 319 88 354 q 54 276 54 283 q 44 265 54 268 q 23 268 33 262 q 12 286 12 273 q 33 338 12 299 q 88 424 54 378 q 174 506 122 470 q 276 541 226 541 q 354 508 327 541 q 382 421 382 474 q 236 149 382 278 q 257 151 249 151 q 361 36 361 151 q 299 -154 361 -48 q 111 -342 222 -284 q -12 -373 49 -373 z "},"":{"ha":580,"x_min":-229,"x_max":580,"o":"m 159 481 q 122 509 128 481 q 136 534 122 531 q 159 528 140 528 q 222 530 178 528 q 373 838 273 777 q 464 862 413 862 q 486 846 487 862 q 478 834 484 834 q 352 749 397 834 q 287 534 313 673 q 444 544 417 544 q 453 531 454 544 q 424 518 451 518 q 280 496 398 518 q 251 278 267 414 q 221 63 234 142 q 193 -76 208 -17 q 155 -195 179 -136 q 102 -292 131 -254 q -67 -378 34 -378 q -177 -342 -134 -378 q -227 -256 -219 -307 q -229 -212 -229 -238 q -219 -146 -229 -187 q -169 -70 -209 -106 q -77 -34 -129 -34 q -53 -41 -62 -34 q -40 -60 -43 -47 q -168 -134 -121 -60 q -196 -223 -196 -179 q -189 -264 -196 -244 q -80 -339 -162 -337 q 19 -301 -23 -339 q 87 -205 62 -262 q 131 -57 111 -148 q 162 113 151 34 q 187 304 172 192 q 214 486 201 416 q 159 481 172 481 m 498 683 q 483 706 484 683 q 507 834 483 776 q 567 893 531 893 q 580 877 580 893 q 566 854 572 864 q 552 831 559 844 q 537 801 544 818 q 522 768 529 784 q 508 697 508 731 q 498 683 508 683 z "},"":{"ha":508,"x_min":166,"x_max":424,"o":"m 326 750 q 344 758 334 758 q 358 750 354 758 l 424 619 l 392 619 l 342 704 l 198 619 l 166 619 q 326 750 272 708 z "},"":{"ha":519,"x_min":151,"x_max":450,"o":"m 262 723 q 273 723 262 723 q 314 697 283 723 q 369 671 344 671 q 417 711 394 671 l 450 711 q 404 652 436 679 q 347 624 373 624 q 288 653 321 624 q 241 682 256 682 q 212 671 226 682 q 186 637 199 660 l 151 637 q 221 713 169 689 q 262 723 241 723 z "},"":{"ha":624,"x_min":72,"x_max":527,"o":"m 486 277 l 84 274 q 73 284 73 274 q 122 316 73 311 l 517 307 q 527 297 528 307 q 486 277 520 278 z "},"":{"ha":833,"x_min":72,"x_max":686,"o":"m 643 277 l 84 274 q 73 284 73 274 q 122 316 73 311 l 676 307 q 686 299 686 307 q 684 296 686 298 q 643 277 680 277 z "},"":{"ha":157,"x_min":-1,"x_max":100,"o":"m 31 631 q 0 671 0 631 q 41 773 0 731 q 83 794 61 794 q 100 784 98 794 l 100 781 q 70 744 81 781 q 59 669 59 707 q 31 631 59 631 z "},"":{"ha":251,"x_min":150,"x_max":251,"o":"m 150 643 q 180 681 169 643 q 191 757 191 719 q 221 794 191 794 q 251 754 251 794 q 209 652 251 694 q 167 631 189 631 q 150 643 152 631 z "},"":{"ha":227,"x_min":31,"x_max":132,"o":"m 31 -26 q 61 12 50 -26 q 72 87 72 49 q 102 124 72 124 q 132 84 132 124 q 90 -19 132 23 q 56 -39 70 -39 q 31 -29 33 -39 l 31 -26 z "},"":{"ha":323,"x_min":-1,"x_max":242,"o":"m 31 631 q 0 671 0 631 q 41 773 0 731 q 83 794 61 794 q 100 784 98 794 l 100 781 q 70 744 81 781 q 59 669 59 707 q 31 631 59 631 m 173 631 q 142 671 142 631 q 183 773 142 731 q 219 794 204 793 q 242 784 240 794 l 242 781 q 213 744 223 781 q 202 669 202 707 q 173 631 202 631 z "},"":{"ha":356,"x_min":107,"x_max":350,"o":"m 249 643 q 279 681 268 643 q 290 757 290 719 q 320 794 290 794 q 350 754 350 794 q 308 652 350 694 q 266 631 288 631 q 249 643 251 631 m 176 794 q 207 754 207 794 q 166 652 207 694 q 130 631 144 632 q 107 640 109 631 l 107 643 q 137 681 126 643 q 148 757 148 719 q 176 794 148 794 z "},"":{"ha":353,"x_min":31,"x_max":251,"o":"m 31 -26 q 61 12 50 -26 q 72 87 72 49 q 102 124 72 124 q 132 84 132 124 q 90 -19 132 23 q 56 -39 70 -39 q 31 -29 33 -39 l 31 -26 m 150 -26 q 180 12 169 -26 q 191 87 191 49 q 221 124 191 124 q 251 84 251 124 q 209 -18 251 24 q 167 -39 189 -39 q 151 -29 152 -39 l 150 -26 z "},"":{"ha":526,"x_min":70,"x_max":478,"o":"m 107 491 l 249 490 q 324 758 316 730 q 359 791 336 791 q 377 744 379 791 q 364 681 376 720 q 303 490 352 641 l 469 490 q 478 481 478 490 q 454 463 478 463 q 293 460 393 463 q 119 -101 146 -4 q 101 -121 112 -121 q 89 -106 89 -121 q 107 -22 89 -80 q 239 458 124 37 q 102 456 130 456 q 70 480 73 456 q 83 499 69 498 q 107 491 88 491 z "},"":{"ha":297,"x_min":34,"x_max":478,"o":"m 107 491 l 249 490 q 324 758 316 730 q 359 791 336 791 q 377 744 379 791 q 364 681 376 720 q 303 490 352 641 l 469 490 q 478 481 478 490 q 454 463 478 463 q 293 460 393 463 l 273 397 q 253 332 260 354 l 433 332 q 442 319 443 332 q 412 306 440 306 q 242 301 384 306 q 119 -101 136 -39 q 101 -121 112 -121 q 89 -106 89 -121 q 112 -6 89 -80 q 197 300 134 69 q 67 298 94 298 q 34 320 39 298 q 48 340 36 337 q 71 333 52 333 l 206 332 q 239 458 222 388 q 102 456 130 456 q 70 480 73 456 q 83 499 69 498 q 107 491 88 491 z "},"":{"ha":372,"x_min":93,"x_max":238,"o":"m 166 493 q 181 493 166 493 q 217 473 196 493 q 238 422 238 452 q 217 371 238 392 q 166 349 196 349 q 114 371 136 349 q 93 422 93 392 q 114 473 93 452 q 166 493 136 493 z "},"":{"ha":751,"x_min":53,"x_max":632,"o":"m 77 -8 q 53 36 53 -8 q 68 92 53 62 q 109 122 82 122 q 131 97 131 122 q 118 57 131 83 q 91 11 104 31 l 77 -8 m 328 -8 q 304 38 304 -8 q 318 93 304 63 q 359 122 332 122 q 382 97 382 122 q 369 57 382 83 q 342 11 356 31 l 328 -8 m 578 -8 q 554 37 554 -8 q 568 92 554 62 q 609 122 582 122 q 632 97 632 122 q 591 11 632 71 l 578 -8 z "},"":{"ha":1126,"x_min":44,"x_max":929,"o":"m 158 -101 q 147 -86 147 -101 q 170 -23 147 -71 q 332 329 193 24 q 473 639 471 634 q 498 660 486 660 q 516 649 511 660 q 516 617 520 638 q 498 569 511 596 q 410 396 484 542 q 172 -86 216 10 q 158 -101 164 -101 m 248 471 q 199 571 248 571 q 144 544 168 571 q 121 533 129 530 q 116 541 113 537 q 210 593 151 593 q 293 472 293 593 q 261 340 293 409 q 139 234 213 234 q 72 262 97 234 q 46 334 46 292 q 54 413 46 376 q 89 483 63 450 q 147 524 114 516 q 156 516 154 526 q 153 504 158 507 q 107 442 122 493 q 91 352 91 391 q 139 257 91 257 q 217 330 187 257 q 248 471 248 403 m 573 196 q 524 296 573 296 q 470 270 493 296 q 442 260 456 256 q 441 266 439 261 q 534 319 476 319 q 614 240 600 319 q 619 197 619 219 q 587 66 619 134 q 464 -40 539 -40 q 398 -13 422 -40 q 371 59 371 18 q 380 138 371 101 q 414 208 389 176 q 472 249 440 240 q 480 246 479 251 q 482 238 481 241 q 479 229 482 232 q 432 167 448 219 q 417 77 417 116 q 464 -19 417 -19 q 543 54 512 -19 q 573 196 573 128 m 882 196 q 833 296 882 296 q 785 276 804 296 q 752 260 766 256 q 751 266 748 261 q 844 319 786 319 q 924 240 910 319 q 928 197 928 219 q 897 66 928 134 q 791 -39 854 -26 l 774 -40 q 686 27 704 -40 q 679 85 679 51 q 698 163 679 119 q 781 249 728 234 q 791 239 790 251 q 788 229 791 231 q 741 167 757 219 q 726 77 726 116 q 774 -19 726 -19 q 852 54 822 -19 q 882 196 882 128 z "},"":{"ha":408,"x_min":39,"x_max":302,"o":"m 229 68 q 39 301 39 286 q 49 316 39 309 l 302 477 l 302 441 l 103 289 l 229 106 l 229 68 z "},"":{"ha":459,"x_min":76,"x_max":339,"o":"m 149 477 q 338 243 338 258 q 329 229 338 236 l 76 68 l 76 103 l 274 256 l 149 438 l 149 477 z "},"":{"ha":661,"x_min":3,"x_max":583,"o":"m 419 270 q 210 264 418 270 q 208 192 208 239 q 226 97 208 146 q 304 31 249 31 q 463 143 394 31 q 493 158 476 162 q 503 142 511 153 q 303 -1 413 -1 q 168 69 210 -1 q 127 237 127 139 q 128 262 127 249 q 40 261 91 261 q 3 283 8 261 q 17 303 4 300 q 40 297 22 297 l 130 297 q 159 428 138 360 q 61 427 118 427 q 24 451 28 427 q 38 470 23 469 q 61 463 42 463 l 172 463 q 294 653 217 579 q 466 727 371 727 q 554 692 526 727 q 583 626 583 658 q 560 584 583 593 q 537 600 540 581 q 532 641 537 621 q 506 679 527 660 q 451 698 486 698 q 337 632 389 698 q 250 463 284 567 l 454 463 q 463 449 466 463 q 440 436 460 436 q 240 431 402 436 q 212 297 224 372 l 433 297 q 442 283 443 297 q 419 270 440 270 z "},"":{"ha":679,"x_min":189,"x_max":603,"o":"m 600 804 q 568 694 581 757 q 554 599 554 632 q 572 566 554 566 q 591 578 584 566 q 598 580 593 580 q 603 578 603 580 q 566 551 590 551 q 532 609 532 551 q 574 798 532 667 q 574 802 576 800 q 569 799 572 803 q 484 654 521 752 q 454 602 466 602 q 449 608 449 602 q 484 770 484 723 q 479 786 484 786 q 438 737 464 786 q 394 634 411 689 q 360 580 377 580 q 354 584 353 580 q 356 593 356 589 q 391 742 391 699 q 376 784 391 784 l 382 796 q 410 741 410 796 q 409 713 410 729 q 484 801 457 801 q 508 767 508 801 q 500 719 508 756 q 586 818 552 818 q 600 804 600 818 m 198 659 q 233 689 212 689 q 253 680 253 689 l 253 678 q 207 640 220 678 q 201 612 201 626 q 212 590 201 598 q 231 582 222 582 q 271 611 254 582 q 293 676 287 639 q 330 804 310 777 l 329 804 q 242 762 256 804 q 250 730 236 738 q 254 729 252 729 q 242 720 254 720 q 224 751 224 720 q 257 799 224 782 q 326 816 289 816 q 388 831 363 816 l 412 846 q 420 842 420 846 q 419 834 420 838 q 356 804 406 812 q 322 679 339 796 q 293 602 316 637 q 236 568 271 568 q 189 622 189 568 q 198 659 189 641 z "}}}
